<?xml version="1.0" encoding="UTF-8" standalone="no"?><!DOCTYPE svg PUBLIC "-//W3C//DTD SVG 1.1//EN" "http://www.w3.org/Graphics/SVG/1.1/DTD/svg11.dtd"><svg width="23px" height="23px" version="1.1" xmlns="http://www.w3.org/2000/svg" xmlns:xlink="http://www.w3.org/1999/xlink" xml:space="preserve" xmlns:serif="http://www.serif.com/" style="fill-rule:evenodd;clip-rule:evenodd;stroke-linejoin:round;stroke-miterlimit:2;"><g transform="matrix(1.21053,0,0,1.21053,-77.4737,-170.684)"><g><rect id="audio_sound_fx" x="64" y="141" width="19" height="19" style="fill:none;"/><g id="audio_sound_fx1" serif:id="audio_sound_fx"><g id="Instr-Preset" serif:id="Instr Preset" transform="matrix(0.928922,0,0,0.928922,34.8949,99.8189)"><path d="M49,54.5C49,50.361 45.639,47 41.5,47C37.361,47 34,50.361 34,54.5C34,58.639 37.361,62 41.5,62C45.639,62 49,58.639 49,54.5Z"/><path d="M49,54.5C49,58.639 45.639,62 41.5,62C37.361,62 34,58.639 34,54.5C34,50.361 37.361,47 41.5,47C45.639,47 49,50.361 49,54.5ZM48.111,54.5C48.111,50.851 45.149,47.889 41.5,47.889C37.851,47.889 34.889,50.851 34.889,54.5C34.889,58.149 37.851,61.111 41.5,61.111C45.149,61.111 48.111,58.149 48.111,54.5Z" style="fill:rgb(119,178,209);"/></g><g transform="matrix(0.63252,0,0,0.748812,62.505,143.811)"><g transform="matrix(12,0,0,12,9.2614,13.2269)"><path d="M0.082,-0L0.082,-0.716L0.565,-0.716L0.565,-0.631L0.177,-0.631L0.177,-0.41L0.513,-0.41L0.513,-0.325L0.177,-0.325L0.177,-0L0.082,-0Z" style="fill:rgb(119,178,209);fill-rule:nonzero;"/></g><g transform="matrix(12,0,0,12,16.5915,13.2269)"><path d="M0.004,-0L0.281,-0.373L0.037,-0.716L0.15,-0.716L0.28,-0.532C0.307,-0.494 0.326,-0.465 0.337,-0.444C0.353,-0.47 0.372,-0.498 0.394,-0.526L0.538,-0.716L0.641,-0.716L0.39,-0.378L0.661,-0L0.543,-0L0.363,-0.255C0.353,-0.27 0.343,-0.286 0.332,-0.303C0.316,-0.277 0.305,-0.259 0.298,-0.25L0.118,-0L0.004,-0Z" style="fill:rgb(119,178,209);fill-rule:nonzero;"/></g></g></g></g></g></svg>