<?xml version="1.0" encoding="UTF-8" standalone="no"?><!DOCTYPE svg PUBLIC "-//W3C//DTD SVG 1.1//EN" "http://www.w3.org/Graphics/SVG/1.1/DTD/svg11.dtd"><svg width="23px" height="23px" version="1.1" xmlns="http://www.w3.org/2000/svg" xmlns:xlink="http://www.w3.org/1999/xlink" xml:space="preserve" xmlns:serif="http://www.serif.com/" style="fill-rule:evenodd;clip-rule:evenodd;stroke-linejoin:round;stroke-miterlimit:2;"><g transform="matrix(1.21053,0,0,1.21053,0,-170.684)"><g><rect id="audio_loop" x="0" y="141" width="19" height="19" style="fill:none;"/><g id="audio_loop1" serif:id="audio_loop"><g id="Instr-Preset" serif:id="Instr Preset" transform="matrix(0.928922,0,0,0.928922,-29.0503,99.8189)"><path d="M49,54.5C49,50.361 45.639,47 41.5,47C37.361,47 34,50.361 34,54.5C34,58.639 37.361,62 41.5,62C45.639,62 49,58.639 49,54.5Z"/><path d="M49,54.5C49,58.639 45.639,62 41.5,62C37.361,62 34,58.639 34,54.5C34,50.361 37.361,47 41.5,47C45.639,47 49,50.361 49,54.5ZM48.111,54.5C48.111,50.851 45.149,47.889 41.5,47.889C37.851,47.889 34.889,50.851 34.889,54.5C34.889,58.149 37.851,61.111 41.5,61.111C45.149,61.111 48.111,58.149 48.111,54.5Z" style="fill:rgb(119,178,209);"/></g><g transform="matrix(0.560587,0,0,0.560587,3.05324,145.768)"><path d="M16.071,3L6.93,3C5.314,3 4,4.438 4,6.205L4,10.795C4,12.562 5.314,14 6.93,14L8,14L8,12L6.93,12C6.426,12 6,11.449 6,10.795L6,6.205C6,5.552 6.426,5 6.93,5L16.072,5C16.574,5 17,5.552 17,6.205L17,10.795C17,11.449 16.574,12 16.071,12L12.875,12L14.53,10.531L13.47,9.47L9.939,13L13.469,16.531L14.53,15.47L12.875,14L16.071,14C17.687,14 19,12.562 19,10.795L19,6.205C19,4.438 17.687,3 16.071,3Z" style="fill:rgb(119,178,209);fill-rule:nonzero;"/></g></g></g></g></svg>