<?xml version="1.0" encoding="UTF-8" standalone="no"?><!DOCTYPE svg PUBLIC "-//W3C//DTD SVG 1.1//EN" "http://www.w3.org/Graphics/SVG/1.1/DTD/svg11.dtd"><svg width="23px" height="23px" version="1.1" xmlns="http://www.w3.org/2000/svg" xmlns:xlink="http://www.w3.org/1999/xlink" xml:space="preserve" xmlns:serif="http://www.serif.com/" style="fill-rule:evenodd;clip-rule:evenodd;stroke-linejoin:round;stroke-miterlimit:2;"><g transform="matrix(1.21053,0,0,1.21053,-38.7368,-170.684)"><g><rect id="audio_one_shot" x="32" y="141" width="19" height="19" style="fill:none;"/><g id="audio_one_shot1" serif:id="audio_one_shot"><g id="Instr-Preset" serif:id="Instr Preset" transform="matrix(0.936232,0,0,0.936232,2.64638,99.4754)"><path d="M49,54.441C49,50.334 45.666,47 41.559,47L41.441,47C37.334,47 34,50.334 34,54.441L34,54.559C34,58.666 37.334,62 41.441,62L41.559,62C45.666,62 49,58.666 49,54.559L49,54.441Z"/><path d="M41.814,47.004C41.735,47.444 41.559,47.882 41.559,47.882L41.441,47.882C37.821,47.882 34.882,50.821 34.882,54.441L34.882,54.559C34.882,58.179 37.821,61.118 41.441,61.118L41.441,61.131C41.469,61.122 41.5,61.118 41.533,61.118L41.559,61.118C45.179,61.118 48.118,58.179 48.118,54.559L48.118,54.441C48.118,50.821 45.179,47.882 41.559,47.882C42.029,47.882 42.413,47.515 42.439,47.052C46.132,47.488 49,50.632 49,54.441L49,54.559C49,58.666 45.666,62 41.559,62L41.441,62C37.334,62 34,58.666 34,54.559L34,54.441C34,50.334 37.334,47 41.441,47L41.559,47C41.644,47 41.729,47.001 41.814,47.004Z" style="fill:rgb(119,178,209);"/></g><g transform="matrix(0.0486556,0,0,0.0486556,-177.986,137.998)"><path d="M4615.95,253.02L4551.37,317.607L4551.37,269.167L4406.05,269.167L4406.05,236.873L4551.37,236.873L4551.37,188.433L4615.95,253.02Z" style="fill:rgb(119,178,209);"/></g></g></g></g></svg>