<?xml version="1.0" encoding="UTF-8" standalone="no"?><!DOCTYPE svg PUBLIC "-//W3C//DTD SVG 1.1//EN" "http://www.w3.org/Graphics/SVG/1.1/DTD/svg11.dtd"><svg width="23px" height="23px" version="1.1" xmlns="http://www.w3.org/2000/svg" xmlns:xlink="http://www.w3.org/1999/xlink" xml:space="preserve" xmlns:serif="http://www.serif.com/" style="fill-rule:evenodd;clip-rule:evenodd;stroke-linejoin:round;stroke-miterlimit:2;"><g transform="matrix(1.21053,0,0,1.21053,-387.368,-93.2105)"><g><rect id="audio_io" x="320" y="77" width="19" height="19" style="fill:none;"/><g id="audio_io1" serif:id="audio_io"><g transform="matrix(0.936232,0,0,0.936232,290.646,35.4754)"><path d="M49,48.765C49,47.791 48.209,47 47.235,47L35.765,47C34.791,47 34,47.791 34,48.765L34,60.235C34,61.209 34.791,62 35.765,62L47.235,62C48.209,62 49,61.209 49,60.235L49,48.765Z" style="fill:rgb(119,178,209);"/><path d="M49.441,48.765L49.441,60.235C49.441,61.453 48.453,62.441 47.235,62.441L35.765,62.441C34.547,62.441 33.559,61.453 33.559,60.235L33.559,48.765C33.559,47.547 34.547,46.559 35.765,46.559L47.235,46.559C48.453,46.559 49.441,47.547 49.441,48.765ZM49,48.765C49,47.791 48.209,47 47.235,47L35.765,47C34.791,47 34,47.791 34,48.765L34,60.235C34,61.209 34.791,62 35.765,62L47.235,62C48.209,62 49,61.209 49,60.235L49,48.765Z" style="fill-opacity:0.66;"/></g><g transform="matrix(-0.826087,0,0,0.826087,335.696,80.3043)"><path id="polygon3061" d="M11.5,5.5L8,3.25L8,5L4,5L4,6L8,6L8,7.75L11.5,5.5Z" style="fill-rule:nonzero;"/><path id="polygon3063" d="M3.5,9.5L7,11.75L7,10L11,10L11,9L7,9L7,7.25L3.5,9.5Z" style="fill-rule:nonzero;"/></g></g></g></g></svg>