<?xml version="1.0" encoding="UTF-8" standalone="no"?><!DOCTYPE svg PUBLIC "-//W3C//DTD SVG 1.1//EN" "http://www.w3.org/Graphics/SVG/1.1/DTD/svg11.dtd"><svg width="23px" height="23px" version="1.1" xmlns="http://www.w3.org/2000/svg" xmlns:xlink="http://www.w3.org/1999/xlink" xml:space="preserve" xmlns:serif="http://www.serif.com/" style="fill-rule:evenodd;clip-rule:evenodd;stroke-linejoin:round;stroke-miterlimit:2;"><g id="device_vocoder" transform="matrix(1.21053,0,0,1.21053,0,-93.2105)"><g><rect x="0" y="77" width="19" height="19" style="fill:none;"/><g id="Audio-FX" serif:id="Audio FX" transform="matrix(0.936232,0,0,0.928922,-29.3536,35.8189)"><path d="M49,48.779C49,47.797 48.209,47 47.235,47L35.765,47C34.791,47 34,47.797 34,48.779L34,60.221C34,61.203 34.791,62 35.765,62L47.235,62C48.209,62 49,61.203 49,60.221L49,48.779Z" style="fill:rgb(133,255,118);"/><g><clipPath id="_clip1"><path d="M49,48.779C49,47.797 48.209,47 47.235,47L35.765,47C34.791,47 34,47.797 34,48.779L34,60.221C34,61.203 34.791,62 35.765,62L47.235,62C48.209,62 49,61.203 49,60.221L49,48.779Z"/></clipPath><g clip-path="url(#_clip1)"><g id="Instrument" transform="matrix(0.992192,0,0,1,0.265462,-7.10543e-14)"><g><clipPath id="_clip2"><rect x="34" y="47" width="7.559" height="15"/></clipPath><g clip-path="url(#_clip2)"><path d="M49,48.779C49,47.797 48.203,47 47.221,47L35.779,47C34.797,47 34,47.797 34,48.779L34,60.221C34,61.203 34.797,62 35.779,62L47.221,62C48.203,62 49,61.203 49,60.221L49,48.779Z" style="fill:rgb(251,235,96);"/><path d="M49.445,48.779L49.445,60.221C49.445,61.448 48.448,62.445 47.221,62.445L35.779,62.445C34.552,62.445 33.555,61.448 33.555,60.221L33.555,48.779C33.555,47.552 34.552,46.555 35.779,46.555L47.221,46.555C48.448,46.555 49.445,47.552 49.445,48.779ZM49,48.779C49,47.797 48.203,47 47.221,47L35.779,47C34.797,47 34,47.797 34,48.779L34,60.221C34,61.203 34.797,62 35.779,62L47.221,62C48.203,62 49,61.203 49,60.221L49,48.779Z" style="fill-opacity:0.66;"/></g></g></g><g transform="matrix(0.117047,0,0,0.084431,-128.803,50.5738)"><path d="M1504,75.323C1504,68.522 1500.05,63 1495.18,63L1414.82,63C1409.95,63 1406,68.522 1406,75.323L1406,187.677C1406,194.478 1409.95,200 1414.82,200L1495.18,200C1500.05,200 1504,194.478 1504,187.677L1504,75.323Z" style="fill:rgb(134,134,134);"/><path d="M1504,75.323L1504,187.677C1504,194.478 1500.05,200 1495.18,200L1414.82,200C1409.95,200 1406,194.478 1406,187.677L1406,75.323C1406,68.522 1409.95,63 1414.82,63L1495.18,63C1500.05,63 1504,68.522 1504,75.323ZM1497.21,75.323C1497.21,73.754 1496.3,72.48 1495.18,72.48L1414.82,72.48C1413.7,72.48 1412.79,73.754 1412.79,75.323L1412.79,187.677C1412.79,189.246 1413.7,190.52 1414.82,190.52L1495.18,190.52C1496.3,190.52 1497.21,189.246 1497.21,187.677L1497.21,75.323Z" style="fill-opacity:0.64;"/></g><g id="Pedal" transform="matrix(0.0418043,0,0,0.0422155,9.37343,43.7518)"><g transform="matrix(1.93838,0,0,2,-2051.84,-7)"><path d="M1504,75.323C1504,68.522 1498.29,63 1491.26,63L1418.74,63C1411.71,63 1406,68.522 1406,75.323L1406,187.677C1406,194.478 1411.71,200 1418.74,200L1491.26,200C1498.29,200 1504,194.478 1504,187.677L1504,75.323Z" style="fill:rgb(178,178,178);"/><path d="M1504,75.323L1504,187.677C1504,194.478 1498.29,200 1491.26,200L1418.74,200C1411.71,200 1406,194.478 1406,187.677L1406,75.323C1406,68.522 1411.71,63 1418.74,63L1491.26,63C1498.29,63 1504,68.522 1504,75.323ZM1496.38,75.323C1496.38,72.591 1494.09,70.373 1491.26,70.373L1418.74,70.373C1415.91,70.373 1413.62,72.591 1413.62,75.323L1413.62,187.677C1413.62,190.409 1415.91,192.627 1418.74,192.627L1491.26,192.627C1494.09,192.627 1496.38,190.409 1496.38,187.677L1496.38,75.323Z"/></g><g transform="matrix(0.263971,0,0,0.321168,281.27,173.475)"><path d="M1489.46,63L1461.3,63C1430.76,63 1406,84.201 1406,110.354L1406,152.646C1406,178.799 1430.76,200 1461.3,200C1483.53,200 1484.74,199.39 1484.74,199.39"/></g><g transform="matrix(-0.263971,0,0,0.321168,1255.73,173.475)"><path d="M1489.46,63L1461.3,63C1430.76,63 1406,84.201 1406,110.354L1406,152.646C1406,178.799 1430.76,200 1461.3,200C1483.53,200 1484.74,199.39 1484.74,199.39"/></g><g transform="matrix(1.07688,0,0,0.615055,-798.355,227.784)"><path d="M1504,86.151C1504,73.374 1498.06,63 1490.75,63L1419.25,63C1411.94,63 1406,73.374 1406,86.151L1406,176.849C1406,189.626 1411.94,200 1419.25,200L1490.75,200C1498.06,200 1504,189.626 1504,176.849L1504,86.151Z" style="fill-opacity:0.54;"/><path d="M1504,86.151L1504,176.849C1504,189.626 1498.06,200 1490.75,200L1419.25,200C1411.94,200 1406,189.626 1406,176.849L1406,86.151C1406,73.374 1411.94,63 1419.25,63L1490.75,63C1498.06,63 1504,73.374 1504,86.151ZM1419.72,86.975L1419.72,176.025L1490.28,176.025L1490.28,86.975L1419.72,86.975Z"/></g><g transform="matrix(1.50763,0,0,1.50469,-1461.28,57.3812)"><path d="M1458,69C1465.73,69 1472,75.273 1472,83C1472,90.727 1465.73,97 1458,97C1450.27,97 1444,90.727 1444,83C1444,75.273 1450.27,69 1458,69ZM1458,78.8C1455.68,78.8 1453.8,80.682 1453.8,83C1453.8,85.318 1455.68,87.2 1458,87.2C1460.32,87.2 1462.2,85.318 1462.2,83C1462.2,80.682 1460.32,78.8 1458,78.8Z"/></g><g transform="matrix(1.50763,0,0,1.50469,-1397.96,57.3812)"><path d="M1458,69C1465.73,69 1472,75.273 1472,83C1472,90.727 1465.73,97 1458,97C1450.27,97 1444,90.727 1444,83C1444,75.273 1450.27,69 1458,69ZM1458,78.8C1455.68,78.8 1453.8,80.682 1453.8,83C1453.8,85.318 1455.68,87.2 1458,87.2C1460.32,87.2 1462.2,85.318 1462.2,83C1462.2,80.682 1460.32,78.8 1458,78.8Z"/></g><g transform="matrix(21.1068,0,0,21.0656,525.772,-2724.79)"><path d="M11.5,133L12,135L11,135L11.5,133Z"/></g></g></g></g><path d="M49.441,48.779L49.441,60.221C49.441,61.448 48.453,62.445 47.235,62.445L35.765,62.445C34.547,62.445 33.559,61.448 33.559,60.221L33.559,48.779C33.559,47.552 34.547,46.555 35.765,46.555L47.235,46.555C48.453,46.555 49.441,47.552 49.441,48.779ZM49,48.779C49,47.797 48.209,47 47.235,47L35.765,47C34.791,47 34,47.797 34,48.779L34,60.221C34,61.203 34.791,62 35.765,62L47.235,62C48.209,62 49,61.203 49,60.221L49,48.779Z" style="fill-opacity:0.66;"/></g></g></g></svg>