<?xml version="1.0" encoding="UTF-8" standalone="no"?><!DOCTYPE svg PUBLIC "-//W3C//DTD SVG 1.1//EN" "http://www.w3.org/Graphics/SVG/1.1/DTD/svg11.dtd"><svg width="23px" height="23px" version="1.1" xmlns="http://www.w3.org/2000/svg" xmlns:xlink="http://www.w3.org/1999/xlink" xml:space="preserve" xmlns:serif="http://www.serif.com/" style="fill-rule:evenodd;clip-rule:evenodd;"><g transform="matrix(1.21053,0,0,1.21053,-426.105,-93.2105)"><g><rect id="device_analysis" x="352" y="77" width="19" height="19" style="fill:none;"/><g id="Analyzer" transform="matrix(0.826087,0,0,0.826087,62.8993,15.0435)"><g id="device_analysis1" serif:id="device_analysis"><g id="Analyzer1" serif:id="Analyzer"><g id="Analyzer2" serif:id="Analyzer" transform="matrix(1.13333,0,0,1.13333,314.637,24.7333)"><path d="M49,48.765C49,47.791 48.209,47 47.235,47L35.765,47C34.791,47 34,47.791 34,48.765L34,60.235C34,61.209 34.791,62 35.765,62L47.235,62C48.209,62 49,61.209 49,60.235L49,48.765Z" style="fill:rgb(255,180,220);"/><path d="M49.441,48.765L49.441,60.235C49.441,61.453 48.453,62.441 47.235,62.441L35.765,62.441C34.547,62.441 33.559,61.453 33.559,60.235L33.559,48.765C33.559,47.547 34.547,46.559 35.765,46.559L47.235,46.559C48.453,46.559 49.441,47.547 49.441,48.765ZM49,48.765C49,47.791 48.209,47 47.235,47L35.765,47C34.791,47 34,47.791 34,48.765L34,60.235C34,61.209 34.791,62 35.765,62L47.235,62C48.209,62 49,61.209 49,60.235L49,48.765Z" style="fill-opacity:0.66;"/></g><g id="path9501" transform="matrix(1.1078,0,0,1.09241,350.3,76.0956)"><path d="M14.393,9.83L12.878,8.315C13.132,7.916 13.27,7.454 13.27,6.97C13.27,6.299 13.009,5.669 12.535,5.194C12.061,4.721 11.431,4.46 10.76,4.46C10.089,4.46 9.459,4.721 8.985,5.195C8.511,5.669 8.25,6.299 8.25,6.97C8.25,7.641 8.511,8.271 8.985,8.744C9.459,9.218 10.09,9.479 10.76,9.479C11.245,9.479 11.707,9.341 12.105,9.087L13.621,10.602L14.393,9.83ZM9.525,8.204C9.195,7.874 9.014,7.436 9.014,6.97C9.014,6.504 9.195,6.065 9.525,5.735C9.855,5.405 10.294,5.224 10.76,5.224C11.226,5.224 11.665,5.405 11.994,5.735C12.324,6.065 12.507,6.504 12.507,6.97C12.507,7.436 12.325,7.874 11.995,8.204C11.665,8.534 11.226,8.715 10.76,8.715C10.294,8.715 9.855,8.534 9.525,8.204Z" style="fill:rgb(36,36,36);fill-rule:nonzero;"/></g><g id="path9660" transform="matrix(1.14177,0,0,1,350.082,77.7376)"><path d="M5.479,13.4C5.479,11.843 7.036,11.843 7.036,11.843C7.036,11.843 8.593,11.843 8.593,13.4C8.593,14.957 10.15,14.957 10.15,14.957C10.15,14.957 11.707,14.957 11.707,13.4C11.707,11.843 13.264,11.843 13.264,11.843C13.264,11.843 14.821,11.843 14.821,13.4" style="fill:none;fill-rule:nonzero;stroke:rgb(36,36,36);stroke-width:0.78px;"/></g></g></g></g></g></g></svg>