<?xml version="1.0" encoding="UTF-8" standalone="no"?><!DOCTYPE svg PUBLIC "-//W3C//DTD SVG 1.1//EN" "http://www.w3.org/Graphics/SVG/1.1/DTD/svg11.dtd"><svg width="23px" height="23px" version="1.1" xmlns="http://www.w3.org/2000/svg" xmlns:xlink="http://www.w3.org/1999/xlink" xml:space="preserve" xmlns:serif="http://www.serif.com/" style="fill-rule:evenodd;clip-rule:evenodd;stroke-linejoin:round;stroke-miterlimit:2;"><g id="device_audio" transform="matrix(1.21053,0,0,1.21053,0,-93.2105)"><g><rect x="0" y="77" width="19" height="19" style="fill:none;"/><g id="Audio-FX" serif:id="Audio FX" transform="matrix(0.936232,0,0,0.936232,-29.3536,35.4754)"><g id="Audio-FX1" serif:id="Audio FX"><path id="Audio-FX2" serif:id="Audio FX" d="M49,48.765C49,47.791 48.209,47 47.235,47L35.765,47C34.791,47 34,47.791 34,48.765L34,60.235C34,61.209 34.791,62 35.765,62L47.235,62C48.209,62 49,61.209 49,60.235L49,48.765Z" style="fill:rgb(161,221,152);"/><g><g><clipPath id="_clip1"><path d="M49,48.765C49,47.791 48.209,47 47.235,47L35.765,47C34.791,47 34,47.791 34,48.765L34,60.235C34,61.209 34.791,62 35.765,62L47.235,62C48.209,62 49,61.209 49,60.235L49,48.765Z"/></clipPath><g clip-path="url(#_clip1)"><g id="Pedal" transform="matrix(0.0418043,0,0,0.0422155,9.37343,43.7518)"><g transform="matrix(1.93838,0,0,2.32686,-2051.84,-49.9827)"><path d="M1504,73.51C1504,67.709 1498.29,63 1491.26,63L1418.74,63C1411.71,63 1406,67.709 1406,73.51L1406,189.49C1406,195.291 1411.71,200 1418.74,200L1491.26,200C1498.29,200 1504,195.291 1504,189.49L1504,73.51Z" style="fill:rgb(133,255,118);"/><path d="M1504,73.51L1504,189.49C1504,195.291 1498.29,200 1491.26,200L1418.74,200C1411.71,200 1406,195.291 1406,189.49L1406,73.51C1406,67.709 1411.71,63 1418.74,63L1491.26,63C1498.29,63 1504,67.709 1504,73.51ZM1496.92,73.51C1496.92,70.932 1494.38,68.839 1491.26,68.839L1418.74,68.839C1415.62,68.839 1413.08,70.932 1413.08,73.51L1413.08,189.49C1413.08,192.068 1415.62,194.161 1418.74,194.161L1491.26,194.161C1494.38,194.161 1496.92,192.068 1496.92,189.49L1496.92,73.51Z" style="fill-opacity:0.81;"/></g><g transform="matrix(0.263971,0,0,0.321168,281.27,194.541)"><path d="M1489.46,63L1461.3,63C1430.76,63 1406,84.201 1406,110.354L1406,152.646C1406,178.799 1430.76,200 1461.3,200C1483.53,200 1484.74,199.39 1484.74,199.39" style="fill-opacity:0.81;"/></g><g transform="matrix(-0.263971,0,0,0.321168,1255.73,194.541)"><path d="M1489.46,63L1461.3,63C1430.76,63 1406,84.201 1406,110.354L1406,152.646C1406,178.799 1430.76,200 1461.3,200C1483.53,200 1484.74,199.39 1484.74,199.39" style="fill-opacity:0.81;"/></g><g transform="matrix(26.8735,0,0,20.9012,-373.623,-2723.81)"><rect x="39" y="139" width="7" height="2" style="fill:url(#_Linear2);"/></g><g transform="matrix(1.53251,0,0,0.617586,-1461.31,268.358)"><path d="M1504,85.876C1504,73.251 1499.83,63 1494.69,63L1415.31,63C1410.17,63 1406,73.251 1406,85.876L1406,177.124C1406,189.749 1410.17,200 1415.31,200L1494.69,200C1499.83,200 1504,189.749 1504,177.124L1504,85.876Z" style="fill-opacity:0.81;"/></g><g transform="matrix(1.11886,0,0,1.11668,-894.465,67.1219)"><circle cx="1458" cy="83" r="14" style="fill-opacity:0.81;"/><path d="M1458,59.641C1470.91,59.641 1481.43,70.088 1481.43,83C1481.43,95.912 1470.91,106.359 1458,106.359C1445.09,106.359 1434.57,95.912 1434.57,83C1434.57,70.088 1445.09,59.641 1458,59.641ZM1458,69C1450.27,69 1444,75.273 1444,83C1444,90.727 1450.27,97 1458,97C1465.73,97 1472,90.727 1472,83C1472,75.273 1465.73,69 1458,69Z" style="fill-opacity:0.81;"/></g><g transform="matrix(1.11886,0,0,1.11668,-831.144,67.1219)"><circle cx="1458" cy="83" r="14" style="fill-opacity:0.81;"/><path d="M1458,59.641C1470.91,59.641 1481.43,70.088 1481.43,83C1481.43,95.912 1470.91,106.359 1458,106.359C1445.09,106.359 1434.57,95.912 1434.57,83C1434.57,70.088 1445.09,59.641 1458,59.641ZM1458,69C1450.27,69 1444,75.273 1444,83C1444,90.727 1450.27,97 1458,97C1465.73,97 1472,90.727 1472,83C1472,75.273 1465.73,69 1458,69Z" style="fill-opacity:0.81;"/></g></g></g></g></g><path id="Audio-FX3" serif:id="Audio FX" d="M49.441,48.765L49.441,60.235C49.441,61.453 48.453,62.441 47.235,62.441L35.765,62.441C34.547,62.441 33.559,61.453 33.559,60.235L33.559,48.765C33.559,47.547 34.547,46.559 35.765,46.559L47.235,46.559C48.453,46.559 49.441,47.547 49.441,48.765ZM49,48.765C49,47.791 48.209,47 47.235,47L35.765,47C34.791,47 34,47.791 34,48.765L34,60.235C34,61.209 34.791,62 35.765,62L47.235,62C48.209,62 49,61.209 49,60.235L49,48.765Z" style="fill-opacity:0.66;"/></g></g></g></g><defs><linearGradient id="_Linear2" x1="0" y1="0" x2="1" y2="0" gradientUnits="userSpaceOnUse" gradientTransform="matrix(1.22465e-16,2,-2,1.22465e-16,42.8927,139)"><stop offset="0" style="stop-color:black;stop-opacity:0"/><stop offset="1" style="stop-color:black;stop-opacity:0.42"/></linearGradient></defs></svg>