<?xml version="1.0" encoding="UTF-8" standalone="no"?><!DOCTYPE svg PUBLIC "-//W3C//DTD SVG 1.1//EN" "http://www.w3.org/Graphics/SVG/1.1/DTD/svg11.dtd"><svg width="23px" height="23px" version="1.1" xmlns="http://www.w3.org/2000/svg" xmlns:xlink="http://www.w3.org/1999/xlink" xml:space="preserve" xmlns:serif="http://www.serif.com/" style="fill-rule:evenodd;clip-rule:evenodd;stroke-linejoin:round;stroke-miterlimit:2;"><g transform="matrix(1.21053,0,0,1.21053,-77.4737,-131.947)"><g><rect id="device_note_layers" x="64" y="109" width="19" height="19" style="fill:none;"/><g id="Note-FX" serif:id="Note FX" transform="matrix(0.928922,0,0,0.928922,34.8949,67.8189)"><g id="device_note_layers1" serif:id="device_note_layers"><g id="Note-FX1" serif:id="Note FX"><path d="M49,48.779C49,47.797 48.203,47 47.221,47L35.779,47C34.797,47 34,47.797 34,48.779L34,60.221C34,61.203 34.797,62 35.779,62L47.221,62C48.203,62 49,61.203 49,60.221L49,48.779Z" style="fill:rgb(225,189,251);"/><g><clipPath id="_clip1"><path d="M49,48.779C49,47.797 48.203,47 47.221,47L35.779,47C34.797,47 34,47.797 34,48.779L34,60.221C34,61.203 34.797,62 35.779,62L47.221,62C48.203,62 49,61.203 49,60.221L49,48.779Z"/></clipPath><g clip-path="url(#_clip1)"><g transform="matrix(0.889296,0,0,1.01634,-137.634,-0.386789)"><path d="M197,54.05L201.5,54.05L202,52.167L206,52.167L206,58L197,58L197,54.05ZM201,51L201,52.75L197,52.75L197,51L201,51Z" style="fill:rgb(36,36,36);"/></g></g></g><path d="M49.445,48.779L49.445,60.221C49.445,61.448 48.448,62.445 47.221,62.445L35.779,62.445C34.552,62.445 33.555,61.448 33.555,60.221L33.555,48.779C33.555,47.552 34.552,46.555 35.779,46.555L47.221,46.555C48.448,46.555 49.445,47.552 49.445,48.779ZM49,48.779C49,47.797 48.203,47 47.221,47L35.779,47C34.797,47 34,47.797 34,48.779L34,60.221C34,61.203 34.797,62 35.779,62L47.221,62C48.203,62 49,61.203 49,60.221L49,48.779Z" style="fill-opacity:0.66;"/></g></g></g></g></g></svg>