<?xml version="1.0" encoding="UTF-8" standalone="no"?><!DOCTYPE svg PUBLIC "-//W3C//DTD SVG 1.1//EN" "http://www.w3.org/Graphics/SVG/1.1/DTD/svg11.dtd"><svg width="23px" height="23px" version="1.1" xmlns="http://www.w3.org/2000/svg" xmlns:xlink="http://www.w3.org/1999/xlink" xml:space="preserve" xmlns:serif="http://www.serif.com/" style="fill-rule:evenodd;clip-rule:evenodd;stroke-linejoin:round;stroke-miterlimit:2;"><g transform="matrix(1.21053,0,0,1.21053,-77.4737,-93.2105)"><g><rect id="device_note" x="64" y="77" width="19" height="19" style="fill:none;"/><g transform="matrix(0.928922,0,0,0.928922,34.8949,35.8189)"><g id="device_note1" serif:id="device_note"><g><g id="Note-FX" serif:id="Note FX"><path id="Note-FX1" serif:id="Note FX" d="M49,48.779C49,47.797 48.203,47 47.221,47L35.779,47C34.797,47 34,47.797 34,48.779L34,60.221C34,61.203 34.797,62 35.779,62L47.221,62C48.203,62 49,61.203 49,60.221L49,48.779Z" style="fill:rgb(225,189,251);"/><g><clipPath id="_clip1"><path d="M49,48.779C49,47.797 48.203,47 47.221,47L35.779,47C34.797,47 34,47.797 34,48.779L34,60.221C34,61.203 34.797,62 35.779,62L47.221,62C48.203,62 49,61.203 49,60.221L49,48.779Z"/></clipPath><g clip-path="url(#_clip1)"><g transform="matrix(1.26667,0,0,1.26667,-52.2333,-55.0667)"><path d="M74,89L70,89L70,88L74,88L74,89ZM78,87L75,87L75,86L78,86L78,87ZM74,85L70,85L70,84L74,84L74,85Z" style="fill:rgb(36,36,36);"/></g></g></g><path id="Note-FX2" serif:id="Note FX" d="M49.445,48.779L49.445,60.221C49.445,61.448 48.448,62.445 47.221,62.445L35.779,62.445C34.552,62.445 33.555,61.448 33.555,60.221L33.555,48.779C33.555,47.552 34.552,46.555 35.779,46.555L47.221,46.555C48.448,46.555 49.445,47.552 49.445,48.779ZM49,48.779C49,47.797 48.203,47 47.221,47L35.779,47C34.797,47 34,47.797 34,48.779L34,60.221C34,61.203 34.797,62 35.779,62L47.221,62C48.203,62 49,61.203 49,60.221L49,48.779Z" style="fill-opacity:0.66;"/></g></g></g></g></g></g></svg>