<?xml version="1.0" encoding="UTF-8" standalone="no"?><!DOCTYPE svg PUBLIC "-//W3C//DTD SVG 1.1//EN" "http://www.w3.org/Graphics/SVG/1.1/DTD/svg11.dtd"><svg width="23px" height="23px" version="1.1" xmlns="http://www.w3.org/2000/svg" xmlns:xlink="http://www.w3.org/1999/xlink" xml:space="preserve" xmlns:serif="http://www.serif.com/" style="fill-rule:evenodd;clip-rule:evenodd;stroke-linejoin:round;stroke-miterlimit:2;"><g transform="matrix(1.21053,0,0,1.21053,0,-131.947)"><g><rect id="device_audio_layers" x="0" y="109" width="19" height="19" style="fill:none;"/><g id="Audio-FX" serif:id="Audio FX" transform="matrix(0.936232,0,0,0.928922,-29.3536,67.8189)"><g id="device_audio_layers1" serif:id="device_audio_layers"><g id="Audio-FX1" serif:id="Audio FX"><path d="M49,48.779C49,47.797 48.209,47 47.235,47L35.765,47C34.791,47 34,47.797 34,48.779L34,60.221C34,61.203 34.791,62 35.765,62L47.235,62C48.209,62 49,61.203 49,60.221L49,48.779Z" style="fill:rgb(133,255,118);"/><g><g><clipPath id="_clip1"><path d="M49,48.779C49,47.797 48.209,47 47.235,47L35.765,47C34.791,47 34,47.797 34,48.779L34,60.221C34,61.203 34.791,62 35.765,62L47.235,62C48.209,62 49,61.203 49,60.221L49,48.779Z"/></clipPath><g clip-path="url(#_clip1)"><g transform="matrix(0.882353,0,0,1.01634,-136.294,-0.386789)"><path d="M197,54.05L201.5,54.05L202,52.167L206,52.167L206,58L197,58L197,54.05ZM201,51L201,52.75L197,52.75L197,51L201,51Z" style="fill-opacity:0.75;"/></g></g></g></g><path d="M49.441,48.779L49.441,60.221C49.441,61.448 48.453,62.445 47.235,62.445L35.765,62.445C34.547,62.445 33.559,61.448 33.559,60.221L33.559,48.779C33.559,47.552 34.547,46.555 35.765,46.555L47.235,46.555C48.453,46.555 49.441,47.552 49.441,48.779ZM49,48.779C49,47.797 48.209,47 47.235,47L35.765,47C34.791,47 34,47.797 34,48.779L34,60.221C34,61.203 34.791,62 35.765,62L47.235,62C48.209,62 49,61.203 49,60.221L49,48.779Z" style="fill-opacity:0.66;"/></g></g></g></g></g></svg>