<?xml version="1.0" encoding="UTF-8" standalone="no"?><!DOCTYPE svg PUBLIC "-//W3C//DTD SVG 1.1//EN" "http://www.w3.org/Graphics/SVG/1.1/DTD/svg11.dtd"><svg width="23px" height="23px" version="1.1" xmlns="http://www.w3.org/2000/svg" xmlns:xlink="http://www.w3.org/1999/xlink" xml:space="preserve" xmlns:serif="http://www.serif.com/" style="fill-rule:evenodd;clip-rule:evenodd;stroke-linejoin:round;stroke-miterlimit:2;"><g transform="matrix(1.21053,0,0,1.21053,-154.947,-93.2105)"><g><rect id="device_drum_machine" x="128" y="77" width="19" height="19" style="fill:none;"/><g transform="matrix(0.826087,0,0,0.826087,23.913,15.0435)"><g id="device_drum_machine1" serif:id="device_drum_machine"><g><g transform="matrix(1.13333,0,0,1.12448,90.4667,25.1492)"><path d="M49,48.779C49,47.797 48.209,47 47.235,47L35.765,47C34.791,47 34,47.797 34,48.779L34,60.221C34,61.203 34.791,62 35.765,62L47.235,62C48.209,62 49,61.203 49,60.221L49,48.779Z" style="fill:rgb(251,235,96);"/><path d="M49.441,48.779L49.441,60.221C49.441,61.448 48.453,62.445 47.235,62.445L35.765,62.445C34.547,62.445 33.559,61.448 33.559,60.221L33.559,48.779C33.559,47.552 34.547,46.555 35.765,46.555L47.235,46.555C48.453,46.555 49.441,47.552 49.441,48.779ZM49,48.779C49,47.797 48.209,47 47.235,47L35.765,47C34.791,47 34,47.797 34,48.779L34,60.221C34,61.203 34.791,62 35.765,62L47.235,62C48.209,62 49,61.203 49,60.221L49,48.779Z" style="fill-opacity:0.66;"/></g><path d="M130.973,94C130.715,94 130.468,93.897 130.285,93.715C130.103,93.532 130,93.285 130,93.027L130,80.011C130,79.452 130.452,79 131.011,79L143.989,79C144.548,79 145,79.452 145,80.011L145,93.027C145,93.285 144.897,93.532 144.715,93.715C144.532,93.897 144.285,94 144.027,94L130.973,94ZM133.5,80L131,80L131,82.5L133.5,82.5L133.5,80ZM137,80L134.5,80L134.5,82.5L137,82.5L137,80ZM140.5,80L138,80L138,82.5L140.5,82.5L140.5,80ZM144,80L141.5,80L141.5,82.5L144,82.5L144,80ZM144,86L144,83.5L141.5,83.5L141.5,86L144,86ZM144,89.5L144,87L141.5,87L141.5,89.5L144,89.5ZM144,93L144,90.5L141.5,90.5L141.5,93L144,93ZM138,93L140.5,93L140.5,90.5L138,90.5L138,93ZM134.5,93L137,93L137,90.5L134.5,90.5L134.5,93ZM131,93L133.5,93L133.5,90.5L131,90.5L131,93ZM131,87L131,89.5L133.5,89.5L133.5,87L131,87ZM131,83.5L131,86L133.5,86L133.5,83.5L131,83.5ZM137,83.5L134.5,83.5L134.5,86L137,86L137,83.5ZM140.5,83.5L138,83.5L138,86L140.5,86L140.5,83.5ZM140.5,89.5L140.5,87L138,87L138,89.5L140.5,89.5ZM134.5,89.5L137,89.5L137,87L134.5,87L134.5,89.5Z" style="fill-opacity:0.8;"/></g></g></g></g></g></svg>