<?xml version="1.0" encoding="UTF-8" standalone="no"?><!DOCTYPE svg PUBLIC "-//W3C//DTD SVG 1.1//EN" "http://www.w3.org/Graphics/SVG/1.1/DTD/svg11.dtd"><svg width="23px" height="23px" version="1.1" xmlns="http://www.w3.org/2000/svg" xmlns:xlink="http://www.w3.org/1999/xlink" xml:space="preserve" xmlns:serif="http://www.serif.com/" style="fill-rule:evenodd;clip-rule:evenodd;stroke-linejoin:round;stroke-miterlimit:2;"><g transform="matrix(1.21053,0,0,1.21053,-193.684,-93.2105)"><g><rect id="device_drum_module" x="160" y="77" width="19" height="19" style="fill:none;"/><g transform="matrix(0.826087,0,0,0.826087,29.4783,15.0435)"><g id="device_drum_module1" serif:id="device_drum_module"><g><g transform="matrix(1.13333,0,0,1.12448,122.467,25.1492)"><path d="M49,48.779C49,47.797 48.209,47 47.235,47L35.765,47C34.791,47 34,47.797 34,48.779L34,60.221C34,61.203 34.791,62 35.765,62L47.235,62C48.209,62 49,61.203 49,60.221L49,48.779Z" style="fill:rgb(251,235,96);"/><path d="M49.441,48.779L49.441,60.221C49.441,61.448 48.453,62.445 47.235,62.445L35.765,62.445C34.547,62.445 33.559,61.448 33.559,60.221L33.559,48.779C33.559,47.552 34.547,46.555 35.765,46.555L47.235,46.555C48.453,46.555 49.441,47.552 49.441,48.779ZM49,48.779C49,47.797 48.209,47 47.235,47L35.765,47C34.791,47 34,47.797 34,48.779L34,60.221C34,61.203 34.791,62 35.765,62L47.235,62C48.209,62 49,61.203 49,60.221L49,48.779Z" style="fill-opacity:0.66;"/></g><g id="path3109-1" transform="matrix(1.22222,0,0,1.38462,157.889,73.6923)"><path d="M14,11C14,11.828 11.985,12.5 9.5,12.5C7.015,12.5 5,11.828 5,11L5,7.5L14,7.5L14,11Z" style="fill:rgb(252,243,71);fill-rule:nonzero;"/><path d="M14,11C14,11.828 11.985,12.5 9.5,12.5C7.015,12.5 5,11.828 5,11L5,7.5L14,7.5L14,11ZM5.818,10.966C5.832,10.982 5.862,11.015 5.885,11.034C5.977,11.11 6.1,11.179 6.243,11.244C6.976,11.577 8.164,11.778 9.5,11.778C10.836,11.778 12.024,11.577 12.757,11.244C12.9,11.179 13.023,11.11 13.115,11.034C13.138,11.015 13.168,10.982 13.182,10.966L13.182,8.222L5.818,8.222L5.818,10.966Z"/></g><g id="path3109" transform="matrix(0.785714,0,0,1.01252,175,62.7622)"><path d="M0,21C0,22.105 -3.134,23 -7,23C-10.866,23 -14,22.105 -14,21C-14,19.895 -10.866,19 -7,19C-3.134,19 0,19.895 0,21Z" style="fill:rgb(252,243,188);fill-rule:nonzero;"/><path d="M0,21C0,22.105 -3.134,23 -7,23C-10.866,23 -14,22.105 -14,21C-14,19.895 -10.866,19 -7,19C-3.134,19 0,19.895 0,21ZM-12.631,21C-12.5,21.085 -12.278,21.221 -12.078,21.299C-10.934,21.744 -9.083,22.012 -7,22.012C-4.917,22.012 -3.066,21.744 -1.922,21.299C-1.722,21.221 -1.5,21.085 -1.369,21C-1.5,20.915 -1.722,20.779 -1.922,20.701C-3.066,20.256 -4.917,19.988 -7,19.988C-9.083,19.988 -10.934,20.256 -12.078,20.701C-12.278,20.779 -12.5,20.915 -12.631,21Z"/></g></g></g></g></g></g></svg>