<?xml version="1.0" encoding="UTF-8" standalone="no"?><!DOCTYPE svg PUBLIC "-//W3C//DTD SVG 1.1//EN" "http://www.w3.org/Graphics/SVG/1.1/DTD/svg11.dtd"><svg width="23px" height="23px" version="1.1" xmlns="http://www.w3.org/2000/svg" xmlns:xlink="http://www.w3.org/1999/xlink" xml:space="preserve" xmlns:serif="http://www.serif.com/" style="fill-rule:evenodd;clip-rule:evenodd;stroke-linecap:round;stroke-linejoin:round;stroke-miterlimit:1.5;"><g transform="matrix(1.21053,0,0,1.21053,-38.7368,-93.2105)"><g><rect id="device_instrument" x="32" y="77" width="19" height="19" style="fill:none;"/><g id="Instrument" transform="matrix(0.928922,0,0,0.928922,2.89491,6.09342)"><g id="device_instrument1" serif:id="device_instrument"><g id="Instrument1" serif:id="Instrument"><g id="Instrument2" serif:id="Instrument" transform="matrix(1,0,0,1,0,32)"><path d="M49,48.779C49,47.797 48.203,47 47.221,47L35.779,47C34.797,47 34,47.797 34,48.779L34,60.221C34,61.203 34.797,62 35.779,62L47.221,62C48.203,62 49,61.203 49,60.221L49,48.779Z" style="fill:rgb(251,235,96);"/></g><g transform="matrix(0.929727,0,0,0.855491,-27.9492,-34.6966)"><rect x="69" y="135.476" width="11.524" height="12.524" style="fill:white;fill-opacity:0.3;"/></g><g transform="matrix(0.95575,0,0,0.955748,1.87631,3.88683)"><g transform="matrix(2.46715e-18,0.0390625,-0.0386406,2.29387e-18,51.6416,55.6988)"><path d="M645.021,116.888L932.001,116.888" style="fill:none;stroke:rgb(31,31,31);stroke-width:19.16px;"/></g><g transform="matrix(-0.0390624,4.85905e-18,-4.65992e-18,-0.0386407,72.3211,96.6217)"><path d="M645.021,116.888L932.001,116.888" style="fill:none;stroke:rgb(31,31,31);stroke-width:19.16px;"/></g><g transform="matrix(2.46715e-18,0.0390625,-0.0386406,2.29387e-18,40.4315,55.6988)"><path d="M645.021,116.888L932.001,116.888" style="fill:none;stroke:rgb(31,31,31);stroke-width:19.16px;"/></g><g transform="matrix(-0.0390624,4.85905e-18,-4.65992e-18,-0.0386407,72.3211,85.4115)"><path d="M645.021,116.888L932.001,116.888" style="fill:none;stroke:rgb(31,31,31);stroke-width:19.16px;"/></g><g transform="matrix(2.46715e-18,0.0390625,-0.0386406,2.29387e-18,44.1682,55.6988)"><path d="M645.021,116.888L932.001,116.888" style="fill:none;stroke:rgb(31,31,31);stroke-width:10.05px;"/></g><g transform="matrix(0.0576839,-3.71206e-19,7.00098e-18,0.606633,-93.9155,2.01938)"><path d="M2334,130.022L2297,130.022L2297,140.371C2297,140.718 2299.97,141 2303.62,141L2327.38,141C2331.03,141 2334,140.718 2334,140.371L2334,130.022Z" style="fill:rgb(31,31,31);"/></g><g transform="matrix(0.0576839,-3.71206e-19,7.00098e-18,0.606633,-90.1788,2.01938)"><path d="M2334,130.022L2297,130.022L2297,140.371C2297,140.718 2299.97,141 2303.62,141L2327.38,141C2331.03,141 2334,140.718 2334,140.371L2334,130.022Z" style="fill:rgb(31,31,31);"/></g><g transform="matrix(2.46715e-18,0.0390625,-0.0386406,2.29387e-18,47.9049,55.6988)"><path d="M645.021,116.888L932.001,116.888" style="fill:none;stroke:rgb(31,31,31);stroke-width:10.05px;"/></g><g transform="matrix(1.0463,0,0,1.0463,-1.96318,29.4148)"><path d="M49.445,48.779L49.445,60.221C49.445,61.448 48.448,62.445 47.221,62.445L35.779,62.445C34.552,62.445 33.555,61.448 33.555,60.221L33.555,48.779C33.555,47.552 34.552,46.555 35.779,46.555L47.221,46.555C48.448,46.555 49.445,47.552 49.445,48.779ZM49,48.779C49,47.797 48.203,47 47.221,47L35.779,47C34.797,47 34,47.797 34,48.779L34,60.221C34,61.203 34.797,62 35.779,62L47.221,62C48.203,62 49,61.203 49,60.221L49,48.779Z" style="fill:rgb(30,30,30);"/></g></g></g></g></g></g></g></svg>