<?xml version="1.0" encoding="UTF-8" standalone="no"?><!DOCTYPE svg PUBLIC "-//W3C//DTD SVG 1.1//EN" "http://www.w3.org/Graphics/SVG/1.1/DTD/svg11.dtd"><svg width="23px" height="23px" version="1.1" xmlns="http://www.w3.org/2000/svg" xmlns:xlink="http://www.w3.org/1999/xlink" xml:space="preserve" xmlns:serif="http://www.serif.com/" style="fill-rule:evenodd;clip-rule:evenodd;stroke-linejoin:round;stroke-miterlimit:2;"><g transform="matrix(1.21053,0,0,1.21053,-387.368,-54.4737)"><g><rect id="device_spectral" x="320" y="45" width="19" height="19" style="fill:none;"/><g id="device_spectral1" serif:id="device_spectral"><g transform="matrix(0.936232,0,0,0.936232,290.646,3.47536)"><path d="M49,48.765C49,47.791 48.209,47 47.235,47L35.765,47C34.791,47 34,47.791 34,48.765L34,60.235C34,61.209 34.791,62 35.765,62L47.235,62C48.209,62 49,61.209 49,60.235L49,48.765Z" style="fill:rgb(133,255,118);"/><path d="M49.441,48.765L49.441,60.235C49.441,61.453 48.453,62.441 47.235,62.441L35.765,62.441C34.547,62.441 33.559,61.453 33.559,60.235L33.559,48.765C33.559,47.547 34.547,46.559 35.765,46.559L47.235,46.559C48.453,46.559 49.441,47.547 49.441,48.765ZM49,48.765C49,47.791 48.209,47 47.235,47L35.765,47C34.791,47 34,47.791 34,48.765L34,60.235C34,61.209 34.791,62 35.765,62L47.235,62C48.209,62 49,61.209 49,60.235L49,48.765Z" style="fill-opacity:0.66;"/></g><g transform="matrix(0.826087,0,0,0.826087,57.3043,9.47826)"><path d="M334,55.56L334,60.004L335,60.004L335,55.56L334,55.56ZM332,54.658L332,60.004L333,60.004L333,54.658L332,54.658ZM328.01,53.18L328,60.003L329,60.004L329.01,53.181L328.01,53.18ZM330,53.908L330.05,60.001L331.05,59.993L331,53.9L330,53.908ZM326,52.335L326.032,60.001L327.032,59.997L327,52.331L326,52.335ZM324.049,49.996L324,59.996L325,60.001L325.049,50.001L324.049,49.996Z" style="fill:rgb(36,36,36);"/></g></g></g></g></svg>