<?xml version="1.0" encoding="UTF-8" standalone="no"?><!DOCTYPE svg PUBLIC "-//W3C//DTD SVG 1.1//EN" "http://www.w3.org/Graphics/SVG/1.1/DTD/svg11.dtd"><svg width="23px" height="23px" version="1.1" xmlns="http://www.w3.org/2000/svg" xmlns:xlink="http://www.w3.org/1999/xlink" xml:space="preserve" xmlns:serif="http://www.serif.com/" style="fill-rule:evenodd;clip-rule:evenodd;"><g transform="matrix(1.21053,0,0,1.21053,-1.21053e-06,-287.074)"><g id="modulator_monophonic"><g transform="matrix(0.936232,0,0,0.936232,0.605797,15.7188)"><g id="Modulator-Shape" serif:id="Modulator Shape"><g id="Modulator-Shape1" serif:id="Modulator Shape"><path d="M15.235,239C15.703,239 16.152,239.186 16.483,239.517C16.814,239.848 17,240.297 17,240.765L17,252.235C17,252.703 16.814,253.152 16.483,253.483C16.152,253.814 15.703,254 15.235,254L3.765,254C3.297,254 2.848,253.814 2.517,253.483C2.186,253.152 2,252.703 2,252.235L2,240.765C2,240.297 2.186,239.848 2.517,239.517C2.848,239.186 3.297,239 3.765,239L15.235,239Z" style="fill:rgb(216,217,0);"/></g></g></g><g transform="matrix(0.0389672,0,0,0.0389672,9.56202,246.418)"><g transform="matrix(1,0,0,1,-125,-125)"><path d="M196.07,230.55L125.14,193.774L54.634,231.356L67.691,152.533L10.16,97.091L89.16,85.152L124.11,13.305L159.879,84.748L239.009,95.786L182.114,151.881L196.07,230.55Z" style="fill:rgb(249,237,50);fill-rule:nonzero;stroke:rgb(1,1,1);stroke-width:1px;"/></g></g></g></g></svg>