<?xml version="1.0" encoding="UTF-8" standalone="no"?><!DOCTYPE svg PUBLIC "-//W3C//DTD SVG 1.1//EN" "http://www.w3.org/Graphics/SVG/1.1/DTD/svg11.dtd"><svg width="23px" height="23px" version="1.1" xmlns="http://www.w3.org/2000/svg" xmlns:xlink="http://www.w3.org/1999/xlink" xml:space="preserve" xmlns:serif="http://www.serif.com/" style="fill-rule:evenodd;clip-rule:evenodd;stroke-linejoin:round;stroke-miterlimit:2;"><g transform="matrix(1.21053,0,0,1.21053,-38.7368,-15.7368)"><g><rect id="impulse" x="32" y="13" width="19" height="19" style="fill:none;"/><g id="impulse1" serif:id="impulse"><g id="impulse2" serif:id="impulse" transform="matrix(0.936232,0,0,0.928922,2.64638,-28.1263)"><path d="M49,48.779C49,47.797 48.209,47 47.235,47L35.765,47C34.791,47 34,47.797 34,48.779L34,60.221C34,61.203 34.791,62 35.765,62L47.235,62C48.209,62 49,61.203 49,60.221L49,48.779Z" style="fill:rgb(17,17,17);"/><g><clipPath id="_clip1"><path d="M49,48.779C49,47.797 48.209,47 47.235,47L35.765,47C34.791,47 34,47.797 34,48.779L34,60.221C34,61.203 34.791,62 35.765,62L47.235,62C48.209,62 49,61.203 49,60.221L49,48.779Z"/></clipPath><g clip-path="url(#_clip1)"><g transform="matrix(0.882353,0,0,0.889296,4,34.4908)"><rect x="37" y="18" width="1" height="9" style="fill:rgb(255,180,220);"/></g><g transform="matrix(0.882353,0,0,0.395243,5.76471,47.8303)"><rect x="37" y="18" width="1" height="9" style="fill:rgb(255,180,220);"/></g><g transform="matrix(0.882353,0,0,0.197621,7.52941,53.1661)"><rect x="37" y="18" width="1" height="9" style="fill:rgb(255,180,220);"/></g><g transform="matrix(0.882353,0,0,0.0988107,9.29412,55.8339)"><rect x="37" y="18" width="1" height="9" style="fill:rgb(255,180,220);"/></g><g transform="matrix(0.882353,0,0,0.0494054,11.0588,57.1679)"><rect x="37" y="18" width="1" height="9" style="fill:rgb(255,180,220);"/></g></g></g><path d="M49,48.779L49,60.221C49,61.203 48.209,62 47.235,62L35.765,62C34.791,62 34,61.203 34,60.221L34,48.779C34,47.797 34.791,47 35.765,47L47.235,47C48.209,47 49,47.797 49,48.779ZM48.118,48.779C48.118,48.288 47.722,47.889 47.235,47.889L35.765,47.889C35.278,47.889 34.882,48.288 34.882,48.779L34.882,60.221C34.882,60.712 35.278,61.111 35.765,61.111L47.235,61.111C47.722,61.111 48.118,60.712 48.118,60.221L48.118,48.779Z" style="fill:rgb(255,180,220);"/></g><g transform="matrix(0.928922,0,0,0.928922,-325.889,-79.217)"><path d="M403.445,103.779L403.445,115.221C403.445,116.448 402.448,117.445 401.221,117.445L389.779,117.445C388.552,117.445 387.555,116.448 387.555,115.221L387.555,103.779C387.555,102.552 388.552,101.555 389.779,101.555L401.221,101.555C402.448,101.555 403.445,102.552 403.445,103.779ZM403,103.779C403,102.797 402.203,102 401.221,102L389.779,102C388.797,102 388,102.797 388,103.779L388,115.221C388,116.203 388.797,117 389.779,117L401.221,117C402.203,117 403,116.203 403,115.221L403,103.779Z" style="fill-opacity:0.66;"/></g></g></g></g></svg>