<?xml version="1.0" encoding="UTF-8" standalone="no"?><!DOCTYPE svg PUBLIC "-//W3C//DTD SVG 1.1//EN" "http://www.w3.org/Graphics/SVG/1.1/DTD/svg11.dtd"><svg width="23px" height="23px" version="1.1" xmlns="http://www.w3.org/2000/svg" xmlns:xlink="http://www.w3.org/1999/xlink" xml:space="preserve" xmlns:serif="http://www.serif.com/" style="fill-rule:evenodd;clip-rule:evenodd;stroke-linejoin:round;stroke-miterlimit:2;"><g transform="matrix(1.21053,0,0,1.21053,-271.158,-170.684)"><g><rect id="kind_clip" x="224" y="141" width="19" height="19" style="fill:none;"/><g id="kind_clip1" serif:id="kind_clip"><g transform="matrix(0.928922,0,0,0.928922,-133.889,48.783)"><path d="M403.445,103.779L403.445,115.221C403.445,116.448 402.448,117.445 401.221,117.445L389.779,117.445C388.552,117.445 387.555,116.448 387.555,115.221L387.555,103.779C387.555,102.552 388.552,101.555 389.779,101.555L401.221,101.555C402.448,101.555 403.445,102.552 403.445,103.779ZM403,103.779C403,102.797 402.203,102 401.221,102L389.779,102C388.797,102 388,102.797 388,103.779L388,115.221C388,116.203 388.797,117 389.779,117L401.221,117C402.203,117 403,116.203 403,115.221L403,103.779Z" style="fill-opacity:0.66;"/></g><g transform="matrix(0.928922,-4.3395e-32,0,0.928922,194.95,99.8737)"><path d="M49,48.779C49,47.797 48.203,47 47.221,47L35.779,47C34.797,47 34,47.797 34,48.779L34,60.221C34,61.203 34.797,62 35.779,62L47.221,62C48.203,62 49,61.203 49,60.221L49,48.779Z" style="fill:rgb(244,113,134);"/></g><path d="M239.696,147.609L239.696,155.87C239.696,156.089 239.609,156.299 239.454,156.454C239.299,156.609 239.089,156.696 238.87,156.696L228.13,156.696C227.911,156.696 227.701,156.609 227.546,156.454C227.391,156.299 227.304,156.089 227.304,155.87L227.304,147.609C227.304,147.39 227.391,147.179 227.546,147.025C227.701,146.87 227.911,146.783 228.13,146.783L238.87,146.783C239.089,146.783 239.299,146.87 239.454,147.025C239.609,147.179 239.696,147.39 239.696,147.609ZM236.391,151.52L231.435,148.918L231.435,154.123L236.391,151.52Z" style="fill:rgb(36,36,36);"/></g></g></g></svg>