<?xml version="1.0" encoding="UTF-8" standalone="no"?><!DOCTYPE svg PUBLIC "-//W3C//DTD SVG 1.1//EN" "http://www.w3.org/Graphics/SVG/1.1/DTD/svg11.dtd"><svg width="23px" height="23px" version="1.1" xmlns="http://www.w3.org/2000/svg" xmlns:xlink="http://www.w3.org/1999/xlink" xml:space="preserve" xmlns:serif="http://www.serif.com/" style="fill-rule:evenodd;clip-rule:evenodd;stroke-linejoin:round;stroke-miterlimit:2;"><g transform="matrix(1.21053,0,0,1.21053,-154.947,-248.158)"><g><rect id="modulator_audio_driven" x="128" y="205" width="19" height="19" style="fill:none;"/><g id="modulator_audio_driven1" serif:id="modulator_audio_driven"><g transform="matrix(0.936232,0,0,0.936232,128.606,-16.2812)"><g id="Modulator-Shape" serif:id="Modulator Shape"><g id="Modulator-Shape1" serif:id="Modulator Shape"><path d="M15.235,239C15.703,239 16.152,239.186 16.483,239.517C16.814,239.848 17,240.297 17,240.765L17,252.235C17,252.703 16.814,253.152 16.483,253.483C16.152,253.814 15.703,254 15.235,254L3.765,254C3.297,254 2.848,253.814 2.517,253.483C2.186,253.152 2,252.703 2,252.235L2,240.765C2,240.297 2.186,239.848 2.517,239.517C2.848,239.186 3.297,239 3.765,239L15.235,239Z" style="fill:rgb(201,93,110);"/><path d="M15.235,238.559C15.82,238.559 16.381,238.791 16.795,239.205C17.209,239.619 17.441,240.18 17.441,240.765L17.441,252.235C17.441,252.82 17.209,253.381 16.795,253.795C16.381,254.209 15.82,254.441 15.235,254.441L3.765,254.441C3.18,254.441 2.619,254.209 2.205,253.795C1.791,253.381 1.559,252.82 1.559,252.235L1.559,240.765C1.559,240.18 1.791,239.619 2.205,239.205C2.619,238.791 3.18,238.559 3.765,238.559L15.235,238.559ZM15.235,239L3.765,239C3.297,239 2.848,239.186 2.517,239.517C2.186,239.848 2,240.297 2,240.765L2,252.235C2,252.703 2.186,253.152 2.517,253.483C2.848,253.814 3.297,254 3.765,254L15.235,254C15.703,254 16.152,253.814 16.483,253.483C16.814,253.152 17,252.703 17,252.235L17,240.765C17,240.297 16.814,239.848 16.483,239.517C16.152,239.186 15.703,239 15.235,239Z" style="fill-opacity:0.66;"/></g></g></g><g id="polygon4587" transform="matrix(1.00966,0,0,1.29814,126.899,202.168)"><path d="M6.8,13L6,13L6,6.451C6,6.202 6.26,6 6.58,6L6.716,6C6.753,6 6.786,6.019 6.795,6.047C6.94,6.466 8,9.535 8,9.535L8,7.471C8,7.346 8.064,7.226 8.177,7.138C8.291,7.05 8.445,7 8.605,7L8.704,7C8.737,7 8.766,7.015 8.779,7.039C8.942,7.342 10,9.306 10,9.306L10,8.456C10,8.335 10.062,8.219 10.172,8.134C10.282,8.048 10.431,8 10.587,8L10.648,8C10.67,8 10.692,8.007 10.707,8.02C10.878,8.161 11.9,9 11.9,9C11.9,9 12.048,8.882 12.2,8.76C12.393,8.606 12.694,8.57 12.938,8.672C13.119,8.747 13.333,8.837 13.518,8.914C13.812,9.036 14.139,9.1 14.472,9.1C14.734,9.101 15,9.101 15,9.101L15,9.9L13.773,9.879L12.8,9.555L12.8,10C12.8,10 12.771,10.012 12.725,10.031C12.374,10.177 11.939,10.105 11.694,9.86C11.309,9.475 10.8,8.966 10.8,8.966L10.8,11L10.586,11C10.257,11 9.959,10.846 9.832,10.61C9.477,9.952 8.8,8.694 8.8,8.694L8.8,12L8.648,12C8.278,12 7.954,11.807 7.858,11.529C7.526,10.566 6.8,8.465 6.8,8.465L6.8,13Z" style="fill:rgb(36,36,36);fill-rule:nonzero;"/></g></g></g></g></svg>