<?xml version="1.0" encoding="UTF-8" standalone="no"?><!DOCTYPE svg PUBLIC "-//W3C//DTD SVG 1.1//EN" "http://www.w3.org/Graphics/SVG/1.1/DTD/svg11.dtd"><svg width="23px" height="23px" version="1.1" xmlns="http://www.w3.org/2000/svg" xmlns:xlink="http://www.w3.org/1999/xlink" xml:space="preserve" xmlns:serif="http://www.serif.com/" style="fill-rule:evenodd;clip-rule:evenodd;stroke-linejoin:round;stroke-miterlimit:2;"><g transform="matrix(1.21053,0,0,1.21053,0,-286.895)"><g><rect id="modulator_monophonic" x="0" y="237" width="19" height="19" style="fill:none;"/><g id="modulator_monophonic1" serif:id="modulator_monophonic"><g transform="matrix(0.936232,0,0,0.936232,0.605797,15.7188)"><g id="Modulator-Shape" serif:id="Modulator Shape"><g id="Modulator-Shape1" serif:id="Modulator Shape"><path d="M15.235,239C15.703,239 16.152,239.186 16.483,239.517C16.814,239.848 17,240.297 17,240.765L17,252.235C17,252.703 16.814,253.152 16.483,253.483C16.152,253.814 15.703,254 15.235,254L3.765,254C3.297,254 2.848,253.814 2.517,253.483C2.186,253.152 2,252.703 2,252.235L2,240.765C2,240.297 2.186,239.848 2.517,239.517C2.848,239.186 3.297,239 3.765,239L15.235,239Z" style="fill:rgb(201,93,110);"/><path d="M15.235,238.559C15.82,238.559 16.381,238.791 16.795,239.205C17.209,239.619 17.441,240.18 17.441,240.765L17.441,252.235C17.441,252.82 17.209,253.381 16.795,253.795C16.381,254.209 15.82,254.441 15.235,254.441L3.765,254.441C3.18,254.441 2.619,254.209 2.205,253.795C1.791,253.381 1.559,252.82 1.559,252.235L1.559,240.765C1.559,240.18 1.791,239.619 2.205,239.205C2.619,238.791 3.18,238.559 3.765,238.559L15.235,238.559ZM15.235,239L3.765,239C3.297,239 2.848,239.186 2.517,239.517C2.186,239.848 2,240.297 2,240.765L2,252.235C2,252.703 2.186,253.152 2.517,253.483C2.848,253.814 3.297,254 3.765,254L15.235,254C15.703,254 16.152,253.814 16.483,253.483C16.814,253.152 17,252.703 17,252.235L17,240.765C17,240.297 16.814,239.848 16.483,239.517C16.152,239.186 15.703,239 15.235,239Z" style="fill:rgb(201,93,110);fill-opacity:0.66;"/></g></g></g><g id="path6" transform="matrix(0.470344,0,0,0.470344,5.31226,242.032)"><path d="M13.7,8.7L13.7,5.6L18.3,9.5L13.7,13.4L13.7,10.3L7.95,10.3C7.71,12 6.26,13 4.5,13C2.57,13 1,11.439 1,9.5C1,7.57 2.57,6 4.5,6C6.26,6 7.71,7.01 7.95,8.7L13.7,8.7Z" style="fill:rgb(36,36,36);fill-rule:nonzero;"/></g></g></g></g></svg>