<?xml version="1.0" encoding="UTF-8" standalone="no"?><!DOCTYPE svg PUBLIC "-//W3C//DTD SVG 1.1//EN" "http://www.w3.org/Graphics/SVG/1.1/DTD/svg11.dtd"><svg width="23px" height="23px" version="1.1" xmlns="http://www.w3.org/2000/svg" xmlns:xlink="http://www.w3.org/1999/xlink" xml:space="preserve" xmlns:serif="http://www.serif.com/" style="fill-rule:evenodd;clip-rule:evenodd;stroke-linecap:round;stroke-linejoin:round;stroke-miterlimit:1.5;"><g transform="matrix(1.21053,0,0,1.21053,-116.21,-286.895)"><g><rect id="modulator_lfo" x="96" y="237" width="19" height="19" style="fill:none;"/><g id="modulator_lfo1" serif:id="modulator_lfo"><g transform="matrix(0.936232,0,0,0.936232,96.6058,15.7188)"><g id="Modulator-Shape" serif:id="Modulator Shape"><g id="Modulator-Shape1" serif:id="Modulator Shape"><path d="M15.235,239C15.703,239 16.152,239.186 16.483,239.517C16.814,239.848 17,240.297 17,240.765L17,252.235C17,252.703 16.814,253.152 16.483,253.483C16.152,253.814 15.703,254 15.235,254L3.765,254C3.297,254 2.848,253.814 2.517,253.483C2.186,253.152 2,252.703 2,252.235L2,240.765C2,240.297 2.186,239.848 2.517,239.517C2.848,239.186 3.297,239 3.765,239L15.235,239Z" style="fill:rgb(201,93,110);"/><path d="M15.235,238.559C15.82,238.559 16.381,238.791 16.795,239.205C17.209,239.619 17.441,240.18 17.441,240.765L17.441,252.235C17.441,252.82 17.209,253.381 16.795,253.795C16.381,254.209 15.82,254.441 15.235,254.441L3.765,254.441C3.18,254.441 2.619,254.209 2.205,253.795C1.791,253.381 1.559,252.82 1.559,252.235L1.559,240.765C1.559,240.18 1.791,239.619 2.205,239.205C2.619,238.791 3.18,238.559 3.765,238.559L15.235,238.559ZM15.235,239L3.765,239C3.297,239 2.848,239.186 2.517,239.517C2.186,239.848 2,240.297 2,240.765L2,252.235C2,252.703 2.186,253.152 2.517,253.483C2.848,253.814 3.297,254 3.765,254L15.235,254C15.703,254 16.152,253.814 16.483,253.483C16.814,253.152 17,252.703 17,252.235L17,240.765C17,240.297 16.814,239.848 16.483,239.517C16.152,239.186 15.703,239 15.235,239Z" style="fill:rgb(201,93,110);fill-opacity:0.66;"/></g></g></g><g transform="matrix(0.826087,0,0,0.826087,18.3478,42.8696)"><path d="M100.5,246.5L100.5,244.864C100.5,244.237 100.749,243.636 101.192,243.192C101.636,242.749 102.237,242.5 102.864,242.5L103.294,242.5C103.879,242.5 104.44,242.732 104.854,243.146C105.268,243.56 105.5,244.121 105.5,244.706L105.5,248.013C105.5,248.673 105.762,249.305 106.228,249.772C106.695,250.238 107.327,250.5 107.987,250.5L107.99,250.5C109.376,250.5 110.5,249.376 110.5,247.99L110.5,246.5" style="fill:none;stroke:rgb(36,36,36);stroke-width:1.31px;"/></g></g></g></g></svg>