<?xml version="1.0" encoding="UTF-8" standalone="no"?><!DOCTYPE svg PUBLIC "-//W3C//DTD SVG 1.1//EN" "http://www.w3.org/Graphics/SVG/1.1/DTD/svg11.dtd"><svg width="23px" height="23px" version="1.1" xmlns="http://www.w3.org/2000/svg" xmlns:xlink="http://www.w3.org/1999/xlink" xml:space="preserve" xmlns:serif="http://www.serif.com/" style="fill-rule:evenodd;clip-rule:evenodd;"><g transform="matrix(1.21053,0,0,1.21053,-193.684,-286.895)"><g><rect id="modulator_midi" x="160" y="237" width="19" height="19" style="fill:none;"/><g id="modulator_midi1" serif:id="modulator_midi"><g transform="matrix(0.936232,0,0,0.936232,160.606,15.7188)"><g id="Modulator-Shape" serif:id="Modulator Shape"><g id="Modulator-Shape1" serif:id="Modulator Shape"><path d="M15.235,239C15.703,239 16.152,239.186 16.483,239.517C16.814,239.848 17,240.297 17,240.765L17,252.235C17,252.703 16.814,253.152 16.483,253.483C16.152,253.814 15.703,254 15.235,254L3.765,254C3.297,254 2.848,253.814 2.517,253.483C2.186,253.152 2,252.703 2,252.235L2,240.765C2,240.297 2.186,239.848 2.517,239.517C2.848,239.186 3.297,239 3.765,239L15.235,239Z" style="fill:rgb(201,93,110);"/><path d="M15.235,238.559C15.82,238.559 16.381,238.791 16.795,239.205C17.209,239.619 17.441,240.18 17.441,240.765L17.441,252.235C17.441,252.82 17.209,253.381 16.795,253.795C16.381,254.209 15.82,254.441 15.235,254.441L3.765,254.441C3.18,254.441 2.619,254.209 2.205,253.795C1.791,253.381 1.559,252.82 1.559,252.235L1.559,240.765C1.559,240.18 1.791,239.619 2.205,239.205C2.619,238.791 3.18,238.559 3.765,238.559L15.235,238.559ZM15.235,239L3.765,239C3.297,239 2.848,239.186 2.517,239.517C2.186,239.848 2,240.297 2,240.765L2,252.235C2,252.703 2.186,253.152 2.517,253.483C2.848,253.814 3.297,254 3.765,254L15.235,254C15.703,254 16.152,253.814 16.483,253.483C16.814,253.152 17,252.703 17,252.235L17,240.765C17,240.297 16.814,239.848 16.483,239.517C16.152,239.186 15.703,239 15.235,239Z" style="fill:rgb(201,93,110);fill-opacity:0.66;"/></g></g></g><g id="path3083" transform="matrix(0.917874,0,0,0.917874,164.452,241.452)"><path d="M10,5.5C10,7.969 7.969,10 5.5,10C3.031,10 1,7.969 1,5.5C1,3.031 3.031,1 5.5,1C7.969,1 10,3.031 10,5.5Z" style="fill:none;fill-rule:nonzero;stroke:rgb(36,36,36);stroke-width:0.99px;"/></g><g transform="matrix(0.860328,0,0,0.860328,-86.4476,227.143)"><path d="M300.75,22.475C300.75,22.886 300.411,23.225 300,23.225C299.589,23.225 299.25,22.886 299.25,22.475C299.25,22.063 299.589,21.725 300,21.725C300.411,21.725 300.75,22.063 300.75,22.475ZM295.629,22.475C295.629,22.886 295.291,23.225 294.879,23.225C294.468,23.225 294.129,22.886 294.129,22.475C294.129,22.063 294.468,21.725 294.879,21.725C295.291,21.725 295.629,22.063 295.629,22.475ZM300,20.725C300,21.136 299.661,21.475 299.25,21.475C298.839,21.475 298.5,21.136 298.5,20.725C298.5,20.313 298.839,19.975 299.25,19.975C299.661,19.975 300,20.313 300,20.725ZM296.5,20.725C296.5,21.136 296.161,21.475 295.75,21.475C295.339,21.475 295,21.136 295,20.725C295,20.313 295.339,19.975 295.75,19.975C296.161,19.975 296.5,20.313 296.5,20.725ZM298.25,20C298.25,20.411 297.911,20.75 297.5,20.75C297.089,20.75 296.75,20.411 296.75,20C296.75,19.589 297.089,19.25 297.5,19.25C297.911,19.25 298.25,19.589 298.25,20Z" style="fill:rgb(36,36,36);"/></g></g></g></g></svg>