<?xml version="1.0" encoding="UTF-8" standalone="no"?><!DOCTYPE svg PUBLIC "-//W3C//DTD SVG 1.1//EN" "http://www.w3.org/Graphics/SVG/1.1/DTD/svg11.dtd"><svg width="23px" height="23px" version="1.1" xmlns="http://www.w3.org/2000/svg" xmlns:xlink="http://www.w3.org/1999/xlink" xml:space="preserve" xmlns:serif="http://www.serif.com/" style="fill-rule:evenodd;clip-rule:evenodd;stroke-linejoin:round;stroke-miterlimit:2;"><g transform="matrix(1.21053,0,0,1.21053,-154.947,-286.895)"><g><rect id="modulator_sidechain" x="128" y="237" width="19" height="19" style="fill:none;"/><g id="modulator_sidechain1" serif:id="modulator_sidechain"><g transform="matrix(0.936232,0,0,0.936232,128.606,15.7188)"><g id="Modulator-Shape" serif:id="Modulator Shape"><g id="Modulator-Shape1" serif:id="Modulator Shape"><path d="M15.235,239C15.703,239 16.152,239.186 16.483,239.517C16.814,239.848 17,240.297 17,240.765L17,252.235C17,252.703 16.814,253.152 16.483,253.483C16.152,253.814 15.703,254 15.235,254L3.765,254C3.297,254 2.848,253.814 2.517,253.483C2.186,253.152 2,252.703 2,252.235L2,240.765C2,240.297 2.186,239.848 2.517,239.517C2.848,239.186 3.297,239 3.765,239L15.235,239Z" style="fill:rgb(201,93,110);"/><path d="M15.235,238.559C15.82,238.559 16.381,238.791 16.795,239.205C17.209,239.619 17.441,240.18 17.441,240.765L17.441,252.235C17.441,252.82 17.209,253.381 16.795,253.795C16.381,254.209 15.82,254.441 15.235,254.441L3.765,254.441C3.18,254.441 2.619,254.209 2.205,253.795C1.791,253.381 1.559,252.82 1.559,252.235L1.559,240.765C1.559,240.18 1.791,239.619 2.205,239.205C2.619,238.791 3.18,238.559 3.765,238.559L15.235,238.559ZM15.235,239L3.765,239C3.297,239 2.848,239.186 2.517,239.517C2.186,239.848 2,240.297 2,240.765L2,252.235C2,252.703 2.186,253.152 2.517,253.483C2.848,253.814 3.297,254 3.765,254L15.235,254C15.703,254 16.152,253.814 16.483,253.483C16.814,253.152 17,252.703 17,252.235L17,240.765C17,240.297 16.814,239.848 16.483,239.517C16.152,239.186 15.703,239 15.235,239Z" style="fill:rgb(201,93,110);fill-opacity:0.66;"/></g></g></g><g id="polygon3063" transform="matrix(0.794638,0,0,1.01714,131.54,239.348)"><path d="M7.5,8.25L4.901,5.001L7.02,5.001L7,2.54L8,2.54L8.02,5.001L10.099,5.001L7.5,8.25Z" style="fill:rgb(36,36,36);fill-rule:nonzero;"/></g><g id="rect3833" transform="matrix(3.02899,0,0,0.826087,126.899,241.13)"><rect x="2" y="10" width="3" height="1" style="fill:rgb(36,36,36);"/></g><g transform="matrix(0.515268,0,0,0.826087,66.6506,42.8696)"><rect x="135.095" y="249" width="4.81" height="3" style="fill:rgb(36,36,36);"/></g></g></g></g></svg>