<?xml version="1.0" encoding="UTF-8" standalone="no"?><!DOCTYPE svg PUBLIC "-//W3C//DTD SVG 1.1//EN" "http://www.w3.org/Graphics/SVG/1.1/DTD/svg11.dtd"><svg width="23px" height="23px" version="1.1" xmlns="http://www.w3.org/2000/svg" xmlns:xlink="http://www.w3.org/1999/xlink" xml:space="preserve" xmlns:serif="http://www.serif.com/" style="fill-rule:evenodd;clip-rule:evenodd;stroke-linejoin:round;stroke-miterlimit:2;"><g transform="matrix(1.21053,0,0,1.21053,-38.7368,-286.895)"><g><rect id="modulator_polyphonic" x="32" y="237" width="19" height="19" style="fill:none;"/><g id="modulator_polyphonic1" serif:id="modulator_polyphonic"><g transform="matrix(0.936232,0,0,0.936232,2.64638,195.475)"><path d="M49,48.765C49,48.297 48.814,47.848 48.483,47.517C48.152,47.186 47.703,47 47.235,47L35.765,47C35.297,47 34.848,47.186 34.517,47.517C34.186,47.848 34,48.297 34,48.765L34,60.235C34,60.703 34.186,61.152 34.517,61.483C34.848,61.814 35.297,62 35.765,62L47.235,62C47.703,62 48.152,61.814 48.483,61.483C48.814,61.152 49,60.703 49,60.235L49,48.765Z" style="fill:rgb(115,93,201);"/><path d="M49.441,48.765L49.441,60.235C49.441,60.82 49.209,61.381 48.795,61.795C48.381,62.209 47.82,62.441 47.235,62.441L35.765,62.441C35.18,62.441 34.619,62.209 34.205,61.795C33.791,61.381 33.559,60.82 33.559,60.235L33.559,48.765C33.559,48.18 33.791,47.619 34.205,47.205C34.619,46.791 35.18,46.559 35.765,46.559L47.235,46.559C47.82,46.559 48.381,46.791 48.795,47.205C49.209,47.619 49.441,48.18 49.441,48.765ZM49,48.765C49,48.297 48.814,47.848 48.483,47.517C48.152,47.186 47.703,47 47.235,47L35.765,47C35.297,47 34.848,47.186 34.517,47.517C34.186,47.848 34,48.297 34,48.765L34,60.235C34,60.703 34.186,61.152 34.517,61.483C34.848,61.814 35.297,62 35.765,62L47.235,62C47.703,62 48.152,61.814 48.483,61.483C48.814,61.152 49,60.703 49,60.235L49,48.765Z" style="fill:rgb(115,93,201);fill-opacity:0.66;"/></g><g id="path6" transform="matrix(0.470344,0,0,0.470344,37.3123,242.032)"><path d="M13.7,8.7L13.7,5.6L18.3,9.5L13.7,13.4L13.7,10.3L7.95,10.3C7.71,12 6.26,13 4.5,13C2.57,13 1,11.439 1,9.5C1,7.57 2.57,6 4.5,6C6.26,6 7.71,7.01 7.95,8.7L13.7,8.7Z" style="fill:rgb(36,36,36);fill-rule:nonzero;"/></g></g></g></g></svg>