<?xml version="1.0" encoding="UTF-8" standalone="no"?><!DOCTYPE svg PUBLIC "-//W3C//DTD SVG 1.1//EN" "http://www.w3.org/Graphics/SVG/1.1/DTD/svg11.dtd"><svg width="23px" height="23px" version="1.1" xmlns="http://www.w3.org/2000/svg" xmlns:xlink="http://www.w3.org/1999/xlink" xml:space="preserve" xmlns:serif="http://www.serif.com/" style="fill-rule:evenodd;clip-rule:evenodd;stroke-linejoin:round;stroke-miterlimit:2;"><g transform="matrix(1.21053,0,0,1.21053,-271.158,-286.895)"><g><rect id="modulator_chaos" x="224" y="237" width="19" height="19" style="fill:none;"/><g id="modulator_chaos1" serif:id="modulator_chaos"><g transform="matrix(0.936232,0,0,0.936232,224.606,15.7188)"><g id="Modulator-Shape" serif:id="Modulator Shape"><g id="Modulator-Shape1" serif:id="Modulator Shape"><path d="M15.235,239C15.703,239 16.152,239.186 16.483,239.517C16.814,239.848 17,240.297 17,240.765L17,252.235C17,252.703 16.814,253.152 16.483,253.483C16.152,253.814 15.703,254 15.235,254L3.765,254C3.297,254 2.848,253.814 2.517,253.483C2.186,253.152 2,252.703 2,252.235L2,240.765C2,240.297 2.186,239.848 2.517,239.517C2.848,239.186 3.297,239 3.765,239L15.235,239Z" style="fill:rgb(201,93,110);"/><path d="M15.235,238.559C15.82,238.559 16.381,238.791 16.795,239.205C17.209,239.619 17.441,240.18 17.441,240.765L17.441,252.235C17.441,252.82 17.209,253.381 16.795,253.795C16.381,254.209 15.82,254.441 15.235,254.441L3.765,254.441C3.18,254.441 2.619,254.209 2.205,253.795C1.791,253.381 1.559,252.82 1.559,252.235L1.559,240.765C1.559,240.18 1.791,239.619 2.205,239.205C2.619,238.791 3.18,238.559 3.765,238.559L15.235,238.559ZM15.235,239L3.765,239C3.297,239 2.848,239.186 2.517,239.517C2.186,239.848 2,240.297 2,240.765L2,252.235C2,252.703 2.186,253.152 2.517,253.483C2.848,253.814 3.297,254 3.765,254L15.235,254C15.703,254 16.152,253.814 16.483,253.483C16.814,253.152 17,252.703 17,252.235L17,240.765C17,240.297 16.814,239.848 16.483,239.517C16.152,239.186 15.703,239 15.235,239Z" style="fill-opacity:0.66;"/></g></g></g><g id="rect3009" transform="matrix(0.826087,0,0,0.826087,227.304,240.304)"><path d="M2,4.5L2,10L7.5,13L7.5,7.5L2,4.5ZM6,7.875C6.398,7.875 6.719,8.196 6.719,8.594C6.719,8.991 6.398,9.313 6,9.313C5.602,9.313 5.281,8.991 5.281,8.594C5.281,8.196 5.602,7.875 6,7.875ZM3.75,8.656C4.148,8.656 4.469,8.977 4.469,9.375C4.469,9.773 4.148,10.094 3.75,10.094C3.352,10.094 3.031,9.773 3.031,9.375C3.031,8.977 3.352,8.656 3.75,8.656Z" style="fill-opacity:0.7;fill-rule:nonzero;"/></g><g id="path3012" transform="matrix(0.826087,0,0,0.826087,227.304,240.304)"><path d="M13,4.5L7.5,7.5L7.5,13L13,10L13,4.5ZM11.438,6.281C11.835,6.281 12.156,6.602 12.156,7C12.156,7.398 11.835,7.719 11.438,7.719C11.04,7.719 10.719,7.398 10.719,7C10.719,6.602 11.04,6.281 11.438,6.281ZM9.5,7.406C9.898,7.406 10.219,7.727 10.219,8.125C10.219,8.523 9.898,8.844 9.5,8.844C9.102,8.844 8.781,8.523 8.781,8.125C8.781,7.727 9.102,7.406 9.5,7.406ZM11.438,8.531C11.835,8.531 12.156,8.852 12.156,9.25C12.156,9.648 11.835,9.969 11.438,9.969C11.04,9.969 10.719,9.648 10.719,9.25C10.719,8.852 11.04,8.531 11.438,8.531ZM9.5,9.531C9.898,9.531 10.219,9.852 10.219,10.25C10.219,10.648 9.898,10.969 9.5,10.969C9.102,10.969 8.781,10.648 8.781,10.25C8.781,9.852 9.102,9.531 9.5,9.531Z" style="fill-opacity:0.4;fill-rule:nonzero;"/></g><g id="path3014" transform="matrix(0.826087,0,0,0.826087,227.304,240.304)"><path d="M7.5,2L2,4.5L7.5,7.5L13,4.5L7.5,2ZM7.5,4.031C7.898,4.031 8.219,4.352 8.219,4.75C8.219,5.148 7.898,5.469 7.5,5.469C7.102,5.469 6.781,5.148 6.781,4.75C6.781,4.352 7.102,4.031 7.5,4.031Z" style="fill:rgb(36,36,36);fill-rule:nonzero;"/></g></g></g></g></svg>