<?xml version="1.0" encoding="UTF-8" standalone="no"?><!DOCTYPE svg PUBLIC "-//W3C//DTD SVG 1.1//EN" "http://www.w3.org/Graphics/SVG/1.1/DTD/svg11.dtd"><svg width="23px" height="23px" version="1.1" xmlns="http://www.w3.org/2000/svg" xmlns:xlink="http://www.w3.org/1999/xlink" xml:space="preserve" xmlns:serif="http://www.serif.com/" style="fill-rule:evenodd;clip-rule:evenodd;stroke-linejoin:round;stroke-miterlimit:2;"><g transform="matrix(1.21053,0,0,1.21053,-464.842,-209.421)"><g><rect id="multisample" x="384" y="173" width="19" height="19" style="fill:none;"/><g id="multisample1" serif:id="multisample"><g id="Instr-Preset" serif:id="Instr Preset" transform="matrix(0.928922,0,1.01823e-32,0.928922,354.895,131.819)"><path d="M49,48.779C49,47.797 48.203,47 47.221,47L35.779,47C34.797,47 34,47.797 34,48.779L34,60.221C34,61.203 34.797,62 35.779,62L47.221,62C48.203,62 49,61.203 49,60.221L49,48.779Z" style="fill:rgb(36,36,36);"/><g><clipPath id="_clip1"><path d="M49,48.779C49,47.797 48.203,47 47.221,47L35.779,47C34.797,47 34,47.797 34,48.779L34,60.221C34,61.203 34.797,62 35.779,62L47.221,62C48.203,62 49,61.203 49,60.221L49,48.779Z"/></clipPath><g clip-path="url(#_clip1)"><g transform="matrix(0.889296,0,-9.74795e-33,0.889296,-309.268,-97.066)"><path d="M392.122,165.959L392.122,171.045C392.122,171.216 392.261,171.354 392.431,171.354L392.828,171.354L392.828,175.041L389.959,175.041L389.959,165.959L392.122,165.959ZM395.855,175.041L393.145,175.041L393.145,171.354L393.542,171.354C393.712,171.354 393.851,171.216 393.851,171.045L393.851,165.959L395.149,165.959L395.149,171.045C395.149,171.216 395.288,171.354 395.458,171.354L395.855,171.354L395.855,175.041ZM399.041,175.041L396.172,175.041L396.172,171.354L396.569,171.354C396.739,171.354 396.878,171.216 396.878,171.045L396.878,165.959L399.041,165.959L399.041,175.041Z" style="fill:rgb(252,243,135);"/></g></g></g><path d="M49,48.779L49,60.221C49,61.203 48.203,62 47.221,62L35.779,62C34.797,62 34,61.203 34,60.221L34,48.779C34,47.797 34.797,47 35.779,47L47.221,47C48.203,47 49,47.797 49,48.779ZM48.111,48.779C48.111,48.288 47.712,47.889 47.221,47.889L35.779,47.889C35.288,47.889 34.889,48.288 34.889,48.779L34.889,60.221C34.889,60.712 35.288,61.111 35.779,61.111L47.221,61.111C47.712,61.111 48.111,60.712 48.111,60.221L48.111,48.779Z" style="fill:rgb(252,243,135);"/></g><g transform="matrix(0.928922,0,0,0.928922,26.1113,80.783)"><path d="M403.445,103.779L403.445,115.221C403.445,116.448 402.448,117.445 401.221,117.445L389.779,117.445C388.552,117.445 387.555,116.448 387.555,115.221L387.555,103.779C387.555,102.552 388.552,101.555 389.779,101.555L401.221,101.555C402.448,101.555 403.445,102.552 403.445,103.779ZM403,103.779C403,102.797 402.203,102 401.221,102L389.779,102C388.797,102 388,102.797 388,103.779L388,115.221C388,116.203 388.797,117 389.779,117L401.221,117C402.203,117 403,116.203 403,115.221L403,103.779Z" style="fill-opacity:0.66;"/></g></g></g></g></svg>