<?xml version="1.0" encoding="UTF-8" standalone="no"?><!DOCTYPE svg PUBLIC "-//W3C//DTD SVG 1.1//EN" "http://www.w3.org/Graphics/SVG/1.1/DTD/svg11.dtd"><svg width="23px" height="23px" version="1.1" xmlns="http://www.w3.org/2000/svg" xmlns:xlink="http://www.w3.org/1999/xlink" xml:space="preserve" xmlns:serif="http://www.serif.com/" style="fill-rule:evenodd;clip-rule:evenodd;stroke-linejoin:round;stroke-miterlimit:2;"><g transform="matrix(1.21053,0,0,1.21053,-309.895,-54.4737)"><g><rect id="note_clip" x="256" y="45" width="19" height="19" style="fill:none;"/><g id="note_clip1" serif:id="note_clip"><g transform="matrix(0.936232,0,0,0.936232,226.646,3.47536)"><path d="M49,48.765C49,47.791 48.209,47 47.235,47L35.765,47C34.791,47 34,47.791 34,48.765L34,60.235C34,61.209 34.791,62 35.765,62L47.235,62C48.209,62 49,61.209 49,60.235L49,48.765Z" style="fill:rgb(36,36,36);"/><g><clipPath id="_clip1"><path d="M49,48.765C49,47.791 48.209,47 47.235,47L35.765,47C34.791,47 34,47.791 34,48.765L34,60.235C34,61.209 34.791,62 35.765,62L47.235,62C48.209,62 49,61.209 49,60.235L49,48.765Z"/></clipPath><g clip-path="url(#_clip1)"><g transform="matrix(1.15385,0,0,1.76471,-229.077,-16.5294)"><rect x="228" y="36" width="13" height="2" style="fill:rgb(225,189,251);"/></g><g transform="matrix(1.21324,0,0,1.05882,-48.2794,-34.8824)"><path d="M74,89L70,89L70,88L74,88L74,89ZM78,86.583L75,86.583L75,85.583L78,85.583L78,86.583ZM74,84.167L70,84.167L70,83.167L74,83.167L74,84.167Z" style="fill:rgb(225,189,251);"/></g></g></g><path d="M49,48.765L49,60.235C49,61.209 48.209,62 47.235,62L35.765,62C34.791,62 34,61.209 34,60.235L34,48.765C34,47.791 34.791,47 35.765,47L47.235,47C48.209,47 49,47.791 49,48.765ZM48.118,48.765C48.118,48.278 47.722,47.882 47.235,47.882L35.765,47.882C35.278,47.882 34.882,48.278 34.882,48.765L34.882,60.235C34.882,60.722 35.278,61.118 35.765,61.118L47.235,61.118C47.722,61.118 48.118,60.722 48.118,60.235L48.118,48.765Z" style="fill:rgb(225,189,251);"/></g><g transform="matrix(0.928922,0,0,0.928922,-101.889,-47.217)"><path d="M403.445,103.779L403.445,115.221C403.445,116.448 402.448,117.445 401.221,117.445L389.779,117.445C388.552,117.445 387.555,116.448 387.555,115.221L387.555,103.779C387.555,102.552 388.552,101.555 389.779,101.555L401.221,101.555C402.448,101.555 403.445,102.552 403.445,103.779ZM403,103.779C403,102.797 402.203,102 401.221,102L389.779,102C388.797,102 388,102.797 388,103.779L388,115.221C388,116.203 388.797,117 389.779,117L401.221,117C402.203,117 403,116.203 403,115.221L403,103.779Z" style="fill-opacity:0.66;"/></g></g></g></g></svg>