<?xml version="1.0" encoding="UTF-8" standalone="no"?><!DOCTYPE svg PUBLIC "-//W3C//DTD SVG 1.1//EN" "http://www.w3.org/Graphics/SVG/1.1/DTD/svg11.dtd"><svg width="23px" height="23px" version="1.1" xmlns="http://www.w3.org/2000/svg" xmlns:xlink="http://www.w3.org/1999/xlink" xml:space="preserve" xmlns:serif="http://www.serif.com/" style="fill-rule:evenodd;clip-rule:evenodd;stroke-linejoin:round;stroke-miterlimit:2;"><g transform="matrix(1.21053,0,0,1.21053,-426.105,-131.947)"><g><rect id="u-he-preset" x="352" y="109" width="19" height="19" style="fill:none;"/><g id="u-he-preset1" serif:id="u-he-preset"><g transform="matrix(0.936232,0,0,0.936232,322.646,67.4754)"><path d="M49,48.765C49,47.791 48.209,47 47.235,47L35.765,47C34.791,47 34,47.791 34,48.765L34,60.235C34,61.209 34.791,62 35.765,62L47.235,62C48.209,62 49,61.209 49,60.235L49,48.765Z" style="fill:rgb(252,243,135);"/><g><clipPath id="_clip1"><path d="M49,48.765C49,47.791 48.209,47 47.235,47L35.765,47C34.791,47 34,47.791 34,48.765L34,60.235C34,61.209 34.791,62 35.765,62L47.235,62C48.209,62 49,61.209 49,60.235L49,48.765Z"/></clipPath><g clip-path="url(#_clip1)"><g id="path9" transform="matrix(0.0882353,0,0,0.0882353,32.6765,45.6765)"><path d="M111.664,59.163L108.486,76.17L118.766,76.17L113.906,101.962C112.785,107.569 111.851,112.989 107.552,117.662C103.627,121.774 98.02,124.203 92.787,124.203C87.367,124.203 82.694,121.961 80.638,117.288C78.396,112.989 79.33,107.383 80.265,102.336L88.301,58.976L69.985,58.976L66.808,75.983L60.827,107.569C59.145,116.354 58.958,123.83 63.631,130.745C67.929,137.286 75.405,141.024 84.003,141.024C93.347,141.024 103.627,136.913 110.355,129.063L108.486,138.968L135.587,138.968L138.764,121.961L128.485,121.961L140.259,58.976L111.664,58.976L111.664,59.163Z" style="fill-rule:nonzero;"/></g></g></g><path d="M49.441,48.765L49.441,60.235C49.441,61.453 48.453,62.441 47.235,62.441L35.765,62.441C34.547,62.441 33.559,61.453 33.559,60.235L33.559,48.765C33.559,47.547 34.547,46.559 35.765,46.559L47.235,46.559C48.453,46.559 49.441,47.547 49.441,48.765ZM49,48.765C49,47.791 48.209,47 47.235,47L35.765,47C34.791,47 34,47.791 34,48.765L34,60.235C34,61.209 34.791,62 35.765,62L47.235,62C48.209,62 49,61.209 49,60.235L49,48.765Z" style="fill-opacity:0.66;"/></g><g transform="matrix(0.826087,0,0,0.826087,281.783,-66.9565)"><circle cx="102" cy="230" r="4" style="fill:url(#_Linear2);"/><g><clipPath id="_clip3"><circle cx="102" cy="230" r="4"/></clipPath><g clip-path="url(#_clip3)"><g transform="matrix(1,0,0,1,-107,20)"><path d="M209.559,208C209.941,208 210.308,208.152 210.578,208.422C210.848,208.692 211,209.059 211,209.441L211,209.559C211,210.355 210.355,211 209.559,211L208,211L208,211.812C208,211.862 207.98,211.91 207.945,211.945C207.91,211.98 207.862,212 207.812,212L207.17,212C207.125,212 207.082,211.982 207.05,211.95C207.018,211.918 207,211.875 207,211.83L207,208.388C207,208.285 207.041,208.186 207.113,208.113C207.186,208.041 207.285,208 207.388,208L209.559,208ZM208.135,209C208.06,209 208,209.06 208,209.135L208,210L209.587,210C209.815,210 210,209.815 210,209.587L210,209.413C210,209.185 209.815,209 209.587,209L208.135,209Z"/></g></g></g><path d="M102,225.5C104.484,225.5 106.5,227.516 106.5,230C106.5,232.484 104.484,234.5 102,234.5C99.516,234.5 97.5,232.484 97.5,230C97.5,227.516 99.516,225.5 102,225.5ZM102,226C99.792,226 98,227.792 98,230C98,232.208 99.792,234 102,234C104.208,234 106,232.208 106,230C106,227.792 104.208,226 102,226Z"/></g></g></g></g><defs><linearGradient id="_Linear2" x1="0" y1="0" x2="1" y2="0" gradientUnits="userSpaceOnUse" gradientTransform="matrix(4.89859e-16,8,-8,4.89859e-16,101.5,226)"><stop offset="0" style="stop-color:rgb(229,229,229);stop-opacity:1"/><stop offset="1" style="stop-color:rgb(179,179,179);stop-opacity:1"/></linearGradient></defs></svg>