<?xml version="1.0" encoding="UTF-8" standalone="no"?><!DOCTYPE svg PUBLIC "-//W3C//DTD SVG 1.1//EN" "http://www.w3.org/Graphics/SVG/1.1/DTD/svg11.dtd"><svg width="23px" height="23px" version="1.1" xmlns="http://www.w3.org/2000/svg" xmlns:xlink="http://www.w3.org/1999/xlink" xml:space="preserve" xmlns:serif="http://www.serif.com/" style="fill-rule:evenodd;clip-rule:evenodd;stroke-linecap:round;"><g transform="matrix(1.21053,0,0,1.21053,-426.105,-54.4737)"><g><rect id="wavetable" x="352" y="45" width="19" height="19" style="fill:none;"/><g id="wavetable1" serif:id="wavetable"><g id="wavetable2" serif:id="wavetable" transform="matrix(0.936232,0,0,0.928922,322.646,3.87375)"><path d="M49,48.779C49,47.797 48.209,47 47.235,47L35.765,47C34.791,47 34,47.797 34,48.779L34,60.221C34,61.203 34.791,62 35.765,62L47.235,62C48.209,62 49,61.203 49,60.221L49,48.779Z" style="fill:rgb(36,36,36);"/><g><g><clipPath id="_clip1"><path d="M49,48.779C49,47.797 48.209,47 47.235,47L35.765,47C34.791,47 34,47.797 34,48.779L34,60.221C34,61.203 34.791,62 35.765,62L47.235,62C48.209,62 49,61.203 49,60.221L49,48.779Z"/></clipPath><g clip-path="url(#_clip1)"><g id="path3020" transform="matrix(0.825775,0,0,0.703834,34.4809,48.8693)"><path d="M1.5,8L6.113,4C10.103,1.051 8.942,11.884 12.052,12C14.377,12.086 13.624,7.929 15.5,7.91" style="fill:none;stroke:rgb(252,243,135);stroke-width:1px;"/></g><g id="path30201" serif:id="path3020" transform="matrix(0.825775,0,0,0.703834,34.4809,48.8693)"><path d="M1.5,8L8.02,3.11C12.01,0.16 8.942,11.884 12.052,12C14.377,12.086 13.624,7.929 15.5,7.91" style="fill:none;stroke:rgb(252,243,173);stroke-opacity:0.45;stroke-width:1px;"/></g><g id="path30202" serif:id="path3020" transform="matrix(0.825775,0,0,0.703834,34.4809,48.8693)"><path d="M1.5,8L3.976,4C6.897,-0.213 8.942,11.884 12.052,12C14.377,12.086 13.624,7.929 15.5,7.91" style="fill:none;stroke:rgb(252,243,170);stroke-opacity:0.45;stroke-width:1px;"/></g></g></g></g><path d="M49,48.779L49,60.221C49,61.203 48.209,62 47.235,62L35.765,62C34.791,62 34,61.203 34,60.221L34,48.779C34,47.797 34.791,47 35.765,47L47.235,47C48.209,47 49,47.797 49,48.779ZM48.118,48.779C48.118,48.288 47.722,47.889 47.235,47.889L35.765,47.889C35.278,47.889 34.882,48.288 34.882,48.779L34.882,60.221C34.882,60.712 35.278,61.111 35.765,61.111L47.235,61.111C47.722,61.111 48.118,60.712 48.118,60.221L48.118,48.779Z" style="fill:rgb(252,243,135);"/></g><g transform="matrix(0.928922,0,0,0.928922,-5.88868,-47.217)"><path d="M403.445,103.779L403.445,115.221C403.445,116.448 402.448,117.445 401.221,117.445L389.779,117.445C388.552,117.445 387.555,116.448 387.555,115.221L387.555,103.779C387.555,102.552 388.552,101.555 389.779,101.555L401.221,101.555C402.448,101.555 403.445,102.552 403.445,103.779ZM403,103.779C403,102.797 402.203,102 401.221,102L389.779,102C388.797,102 388,102.797 388,103.779L388,115.221C388,116.203 388.797,117 389.779,117L401.221,117C402.203,117 403,116.203 403,115.221L403,103.779Z" style="fill-opacity:0.66;"/></g></g></g></g></svg>